<svg id="Layer_6" data-name="Layer 6" xmlns="http://www.w3.org/2000/svg" viewBox="0 0 80 80"><defs><style>.cls-1{fill:#cbccda;}.cls-2{fill:#62678f;}</style></defs><circle class="cls-1" cx="40" cy="40" r="40"/><path class="cls-2" d="M24.62,28.62A11.38,11.38,0,1,0,36,40,11.39,11.39,0,0,0,24.62,28.62Zm5.47,11.77a.59.59,0,0,1-.59.59h-7l2.94,2.8a.59.59,0,0,1,0,.84l-.54.54a.59.59,0,0,1-.83,0l-4.75-4.75a.57.57,0,0,1,0-.82l4.75-4.75a.57.57,0,0,1,.82,0l.55.54a.6.6,0,0,1,0,.84L22.49,39h7a.58.58,0,0,1,.59.59Z"/><path class="cls-2" d="M55.38,28.62A11.38,11.38,0,1,0,66.76,40,11.39,11.39,0,0,0,55.38,28.62Zm5.3,11.79-4.75,4.75a.57.57,0,0,1-.82,0l-.55-.54a.6.6,0,0,1,0-.84L57.51,41h-7a.58.58,0,0,1-.59-.59v-.78A.59.59,0,0,1,50.5,39h7l-2.94-2.8a.59.59,0,0,1,0-.84l.54-.54a.59.59,0,0,1,.83,0l4.75,4.75A.57.57,0,0,1,60.68,40.41Z"/></svg>