<svg id="Layer_6" data-name="Layer 6" xmlns="http://www.w3.org/2000/svg" viewBox="0 0 80 80"><defs><style>.cls-1{fill:#cbccda;}.cls-2{fill:#575d88;}.cls-3{fill:#62678f;}</style></defs><circle class="cls-1" cx="40" cy="40" r="40"/><path class="cls-2" d="M55.12,38.31l-19,14.47.45.58c1.37,1.81,2.29,3,3.69,4.84a14,14,0,0,0,1.92,2.08,9.93,9.93,0,0,0,9.56,2.16,16.25,16.25,0,0,0,7.36-4.92,10.31,10.31,0,0,0,.56-13.26c-1.5-2-2.59-3.42-4.11-5.42Z"/><path class="cls-3" d="M55.12,38.31l.4.53c1.52,2,2.61,3.4,4.11,5.42a10.31,10.31,0,0,1-.56,13.26,16.25,16.25,0,0,1-7.36,4.92,9.93,9.93,0,0,1-9.56-2.16,14,14,0,0,1-1.92-2.08c-1.4-1.79-2.32-3-3.69-4.84l-.45-.58Z"/><path class="cls-3" d="M45.25,44l8.88-6.76c-1.92-2.53-3.67-5.16-5.75-7.48a9.57,9.57,0,0,0-10.17-2.83,28.11,28.11,0,0,0-3.88,1.66c-.13-.12-.35-.35-.59-.57a6,6,0,0,0-4-1.73,6.08,6.08,0,0,0-3.69,1.29c-1.79,1.27-3.06,1.2-4.66-.33A2.14,2.14,0,0,1,20.83,26a4.2,4.2,0,0,1,.27-1.63A8.31,8.31,0,0,1,23.48,21c.65-.62,1.39-1.23,2.05-1.81-.52-.69-1.06-1.31-1.59-2-.58.51-1.12,1-1.65,1.45a12.42,12.42,0,0,0-3.74,5.29c-1.36,4.18,1.9,6.76,4.85,7.07a5.77,5.77,0,0,0,4.23-1.4,3.11,3.11,0,0,1,4.68.78l-1,1a10.42,10.42,0,0,0-1,13.81c1.49,2,3,4,4.52,5.94l.42.56L44,45,42.8,43.37a3.54,3.54,0,0,1-1.45.31,3.46,3.46,0,0,1-2.78-1.36q-1.55-2-3.08-4a3.64,3.64,0,0,1-.67-2.79,3.33,3.33,0,0,1,.82-1.72l-.81-1.08a.8.8,0,1,1,1.28-1L37,32.85a3.49,3.49,0,0,1,4.26,1.22c.3.44.63.86,1,1.31l.5.64.5.66c.35.45.7.91,1,1.37a3.45,3.45,0,0,1-.15,4.37Z"/><path class="cls-3" d="M41.42,37c-.51-.67-1.05-1.33-1.53-2a2,2,0,1,0-3.12,2.35l3.06,4a1.93,1.93,0,0,0,2.71.33A1.88,1.88,0,0,0,43,39Z"/></svg>