<svg id="Layer_6" data-name="Layer 6" xmlns="http://www.w3.org/2000/svg" viewBox="0 0 80 80"><defs><style>.cls-1{fill:#cbccda;}.cls-2{fill:#62678f;}.cls-3{fill:#969ab4;}</style></defs><circle class="cls-1" cx="40" cy="40" r="40"/><path class="cls-2" d="M27.22,41.32H16.1a2.36,2.36,0,0,0-2.35,2.35V54.79a2.36,2.36,0,0,0,2.35,2.35H27.22a2.35,2.35,0,0,0,2.35-2.35V43.67A2.35,2.35,0,0,0,27.22,41.32Zm-1.5,8.44H19.38l2.42,2.17a.59.59,0,0,1-.4,1A.58.58,0,0,1,21,52.8l-4-3.59,4-3.56a.59.59,0,0,1,.78.89l-2.32,2h6.22a.59.59,0,0,1,.59.59A.58.58,0,0,1,25.72,49.76Z"/><path class="cls-2" d="M52.78,57.14H63.9a2.36,2.36,0,0,0,2.35-2.35V43.67a2.36,2.36,0,0,0-2.35-2.35H52.78a2.35,2.35,0,0,0-2.35,2.35V54.79A2.35,2.35,0,0,0,52.78,57.14Zm1.5-8.44h6.34L58.2,46.53a.59.59,0,0,1,.4-1,.58.58,0,0,1,.39.15l4,3.59-4,3.56a.59.59,0,0,1-.78-.89l2.32-2H54.28a.59.59,0,0,1-.59-.59A.58.58,0,0,1,54.28,48.7Z"/><path class="cls-3" d="M32.09,43.59V54.71a2.36,2.36,0,0,0,2.35,2.36H45.56a2.36,2.36,0,0,0,2.35-2.36V43.59a2.36,2.36,0,0,0-2.35-2.35H34.44A2.36,2.36,0,0,0,32.09,43.59Zm8.44,1.5v6.34L42.7,49a.58.58,0,0,1,1,.39.62.62,0,0,1-.15.4L40,53.8l-3.56-4a.59.59,0,1,1,.89-.77l2,2.31V45.09a.6.6,0,0,1,.59-.59A.59.59,0,0,1,40.53,45.09Z"/><path class="cls-3" d="M48,36.33V25.21a2.36,2.36,0,0,0-2.36-2.35H34.52a2.36,2.36,0,0,0-2.36,2.35V36.33a2.36,2.36,0,0,0,2.36,2.35H45.63A2.36,2.36,0,0,0,48,36.33Zm-8.45-1.5V28.49L37.38,30.9a.58.58,0,0,1-.83.05.6.6,0,0,1-.2-.44.58.58,0,0,1,.15-.39l3.59-4,3.56,4a.59.59,0,0,1,0,.83.6.6,0,0,1-.83-.05l-2.05-2.32v6.22a.58.58,0,0,1-.59.59A.59.59,0,0,1,39.54,34.83Z"/></svg>