<svg id="Layer_6" data-name="Layer 6" xmlns="http://www.w3.org/2000/svg" viewBox="0 0 24 24"><defs><style>.cls-1{fill:#62678f;}</style></defs><path class="cls-1" d="M10.49,6.13,7.25.73A1.51,1.51,0,0,0,6,0H.75A.75.75,0,0,0,.14,1.18L5.35,8.63a9.77,9.77,0,0,1,5.14-2.5ZM23.25,0H18a1.51,1.51,0,0,0-1.29.73l-3.24,5.4a9.77,9.77,0,0,1,5.14,2.5l5.21-7.45A.75.75,0,0,0,23.25,0ZM12,7.5a8.25,8.25,0,1,0,8.25,8.25A8.25,8.25,0,0,0,12,7.5Zm4.34,7.37L14.56,16.6,15,19.05a.54.54,0,0,1-.78.57L12,18.46,9.8,19.62A.54.54,0,0,1,9,19.05l.42-2.45L7.66,14.87A.54.54,0,0,1,8,14l2.46-.35,1.1-2.23a.53.53,0,0,1,1,0l1.1,2.23L16,14A.54.54,0,0,1,16.34,14.87Z"/></svg>