<svg id="Layer_6" data-name="Layer 6" xmlns="http://www.w3.org/2000/svg" viewBox="0 0 24 21"><defs><style>.cls-1{fill:#62678f;}</style></defs><path class="cls-1" d="M4.5,9a3,3,0,1,0-3-3A3,3,0,0,0,4.5,9ZM15,10.5A5.25,5.25,0,1,0,9.75,5.25,5.25,5.25,0,0,0,15,10.5ZM18.6,12h-.39a7.24,7.24,0,0,1-6.42,0H11.4A5.4,5.4,0,0,0,6,17.4v1.35A2.25,2.25,0,0,0,8.25,21h13.5A2.25,2.25,0,0,0,24,18.75V17.4A5.4,5.4,0,0,0,18.6,12ZM8.11,11.37A3,3,0,0,0,6,10.5H3a3,3,0,0,0-3,3V15a1.5,1.5,0,0,0,1.5,1.5H4.59a6.89,6.89,0,0,1,3.52-5.13Z"/></svg>