<svg id="Layer_6" data-name="Layer 6" xmlns="http://www.w3.org/2000/svg" viewBox="0 0 24.38 19.45"><defs><style>.cls-1{fill:#62678f;}</style></defs><circle class="cls-1" cx="8.73" cy="4.9" r="4.82"/><path class="cls-1" d="M11.67,11.12h-.62a6.54,6.54,0,0,1-5.43,0H5a5,5,0,0,0-5,5v1.54a1.79,1.79,0,0,0,1.79,1.79H12a1.76,1.76,0,0,1-.09-.79l.25-2.27,0-.41.3-.29,2.87-2.88A4.94,4.94,0,0,0,11.67,11.12Z"/><path class="cls-1" d="M13.81,16.4l-.26,2.29a.59.59,0,0,0,.66.66l2.29-.25,5.19-5.19L19,11.21Z"/><path class="cls-1" d="M24.12,10.21,22.7,8.78a.91.91,0,0,0-1.28,0L20,10.2l-.15.16,2.7,2.7,1.57-1.58A.9.9,0,0,0,24.12,10.21Z"/><circle class="cls-1" cx="8.33" cy="4.86" r="4.86"/></svg>