<svg id="Layer_6" data-name="Layer 6" xmlns="http://www.w3.org/2000/svg" viewBox="0 0 23 23"><defs><style>.cls-1{fill:#62678f;}</style></defs><path class="cls-1" d="M14.67,8.33a6.82,6.82,0,0,1,0,9.64h0l-3,3A6.82,6.82,0,0,1,2,11.35L3.66,9.68a.72.72,0,0,1,1.23.48,8.06,8.06,0,0,0,.44,2.36.75.75,0,0,1-.17.75l-.59.59a3.23,3.23,0,1,0,4.54,4.6l3-3a3.23,3.23,0,0,0,0-4.57,3.42,3.42,0,0,0-.46-.39.7.7,0,0,1-.32-.56,1.79,1.79,0,0,1,.53-1.34l.95-1a.71.71,0,0,1,.92-.07,6.16,6.16,0,0,1,.92.77ZM21,2a6.81,6.81,0,0,0-9.65,0l-3,3h0a6.82,6.82,0,0,0,0,9.64,6.16,6.16,0,0,0,.92.77.71.71,0,0,0,.92-.07l.95-.95a1.79,1.79,0,0,0,.53-1.34.7.7,0,0,0-.32-.56,3.42,3.42,0,0,1-.46-.39,3.23,3.23,0,0,1,0-4.57l3-3a3.23,3.23,0,1,1,4.54,4.6l-.59.59a.75.75,0,0,0-.17.75,8.06,8.06,0,0,1,.44,2.36.72.72,0,0,0,1.23.48L21,11.65A6.81,6.81,0,0,0,21,2Z"/></svg>