<svg id="Layer_6" data-name="Layer 6" xmlns="http://www.w3.org/2000/svg" viewBox="0 0 250 94.44"><defs><style>.cls-1{fill:#8185a5;}</style></defs><rect class="cls-1" x="75" y="88.48" width="54.61" height="3.21"/><path class="cls-1" d="M75.51,38H79v3.17c1.11-2.31,3.17-3.3,5.82-3.3a5.38,5.38,0,0,1,5.58,3.94c1-2.74,3.17-3.94,6.09-3.94,3.68,0,5.89,2.4,5.89,6.31V54.36H98.86v-9.2c0-2.5-1.45-4-3.8-4-2.75.09-4.41,2.24-4.41,5.11v8.09H87.18v-9.2c0-2.5-1.41-4-3.77-4C80.64,41.25,79,43.4,79,46.27v8.09H75.51Z"/><path class="cls-1" d="M106.68,38h3.54v9.2c0,2.46,1.44,4,3.81,4,2.84-.06,4.5-2.25,4.5-5.11V38h3.54V54.36h-3.54v-3.2c-1.11,2.28-3.17,3.29-5.85,3.32-3.75,0-6-2.4-6-6.31Z"/><path class="cls-1" d="M127.21,31.52h3.54V54.36h-3.54Z"/><path class="cls-1" d="M134.25,38.6h2.31V34.11h3.51V38.6h4.84v2.65h-4.84V49.1c0,1.69.65,2.21,1.76,2.21a5.72,5.72,0,0,0,2.46-.7l.89,2.7a7.83,7.83,0,0,1-4,1.2c-2.46,0-4.59-1.41-4.59-4.77V41.25h-2.31Z"/><path class="cls-1" d="M150.2,31.15a2.14,2.14,0,1,1-2.06,2.16A2.05,2.05,0,0,1,150.2,31.15ZM148.45,38H152V54.36h-3.51Z"/><path class="cls-1" d="M157,38h3.44v3.17c1.12-2.31,3.17-3.3,5.82-3.3a5.38,5.38,0,0,1,5.58,3.94c1-2.74,3.17-3.94,6.1-3.94,3.68,0,5.88,2.4,5.88,6.31V54.36H180.3v-9.2c0-2.5-1.45-4-3.8-4-2.75.09-4.4,2.24-4.4,5.11v8.09h-3.47v-9.2c0-2.5-1.42-4-3.77-4-2.78.09-4.47,2.24-4.47,5.11v8.09H157Z"/><path class="cls-1" d="M195.53,37.86c5.76,0,8.1,3.76,7.67,9.67H190.82a5,5,0,0,0,5.08,4.09,6.37,6.37,0,0,0,4.62-1.91l1.88,2a8.9,8.9,0,0,1-6.78,2.77c-5,0-8.37-3.35-8.37-8.28A8,8,0,0,1,195.53,37.86Zm4.59,7.08a4.21,4.21,0,0,0-4.56-4.25,4.67,4.67,0,0,0-4.8,4.25Z"/><path class="cls-1" d="M213.58,37.83a6.47,6.47,0,0,1,5.82,3v-9.3h3.54V54.36H219.4v-2.8a6.34,6.34,0,0,1-5.76,2.95c-4.71,0-7.85-3.41-7.85-8.4S209,37.83,213.58,37.83Zm.8,13.73c3,0,5-2.22,5-5.33s-2.06-5.38-5-5.38-5,2.24-5,5.38S211.39,51.56,214.38,51.56Z"/><path class="cls-1" d="M229.84,31.15a2.14,2.14,0,1,1-2.06,2.16A2,2,0,0,1,229.84,31.15ZM228.08,38h3.51V54.36h-3.51Z"/><path class="cls-1" d="M241.54,44.51h5V44c0-2.06-1.32-3.3-3.91-3.3a8.62,8.62,0,0,0-4.83,1.67l-1.45-2.47a12,12,0,0,1,7-2.06c4.22,0,6.59,2.16,6.62,5.76l0,10.74h-3.48v-2a6.63,6.63,0,0,1-5.42,2.15c-3.54,0-5.75-2.18-5.75-5.07S237.6,44.54,241.54,44.51Zm.3,7.2c2.53,0,4.47-1.32,4.65-3.11V47.1h-4.43c-2.31,0-3.39.61-3.39,2.18S239.87,51.71,241.84,51.71Z"/><path class="cls-1" d="M82.3,64.49c5.76,0,8.1,3.76,7.67,9.67H77.59a5,5,0,0,0,5.08,4.09,6.33,6.33,0,0,0,4.62-1.91l1.88,2a8.92,8.92,0,0,1-6.77,2.77c-5.05,0-8.38-3.36-8.38-8.28A8,8,0,0,1,82.3,64.49Zm4.59,7.08a4.2,4.2,0,0,0-4.56-4.24,4.66,4.66,0,0,0-4.8,4.24Z"/><path class="cls-1" d="M100.35,64.46a6.47,6.47,0,0,1,5.82,3v-9.3h3.54V81h-3.54v-2.8a6.35,6.35,0,0,1-5.76,3c-4.71,0-7.85-3.42-7.85-8.41S95.73,64.46,100.35,64.46Zm.8,13.73c3,0,5-2.21,5-5.32s-2.06-5.39-5-5.39-5,2.25-5.05,5.39S98.17,78.19,101.15,78.19Z"/><path class="cls-1" d="M114.56,64.62h3.54v9.2c0,2.46,1.45,4,3.82,4,2.83-.06,4.49-2.25,4.49-5.11V64.62H130V81h-3.54v-3.2c-1.11,2.28-3.17,3.29-5.85,3.33-3.75,0-6-2.41-6-6.31Z"/><path class="cls-1" d="M142.06,64.49a8.64,8.64,0,0,1,6.77,2.68l-1.94,2.28a6.19,6.19,0,0,0-4.68-1.85c-2.83,0-4.86,2.13-4.86,5.24s2,5.23,4.86,5.23a6.12,6.12,0,0,0,4.84-2l2,2a8.34,8.34,0,0,1-7,3.05,7.88,7.88,0,0,1-8.25-8.28C133.81,67.88,137.2,64.49,142.06,64.49Z"/><path class="cls-1" d="M157.75,71.14h4.95v-.49c0-2.06-1.32-3.29-3.91-3.29A8.6,8.6,0,0,0,154,69l-1.44-2.46a11.93,11.93,0,0,1,7-2.07c4.22,0,6.59,2.16,6.62,5.76l0,10.74h-3.48V79a6.62,6.62,0,0,1-5.41,2.16c-3.54,0-5.76-2.19-5.76-5.08S153.81,71.17,157.75,71.14Zm.31,7.21c2.52,0,4.46-1.33,4.64-3.11V73.73h-4.43c-2.31,0-3.39.61-3.39,2.18S156.09,78.35,158.06,78.35Z"/><path class="cls-1" d="M169.14,65.23h2.31V60.74H175v4.49h4.83v2.65H175v7.85c0,1.69.65,2.22,1.76,2.22a5.79,5.79,0,0,0,2.46-.71l.89,2.71a7.86,7.86,0,0,1-4,1.2c-2.46,0-4.59-1.42-4.59-4.77v-8.5h-2.31Z"/><path class="cls-1" d="M185.07,57.78a2.14,2.14,0,0,1,0,4.28,2.14,2.14,0,0,1,0-4.28Zm-1.75,6.84h3.51V81h-3.51Z"/><path class="cls-1" d="M193.29,64.62l4.56,12.89,4.49-12.89h3.54L199.6,81h-3.66L189.6,64.62Z"/><path class="cls-1" d="M215.27,64.49c5,0,8.53,3.36,8.53,8.31s-3.48,8.32-8.53,8.32-8.56-3.39-8.56-8.32S210.19,64.49,215.27,64.49Zm0,13.67c2.92,0,5-2.15,5-5.32s-2.07-5.3-5-5.3-5,2.16-5,5.3S212.32,78.16,215.27,78.16Z"/><rect class="cls-1" x="60.93" y="0.1" width="2.53" height="15.36" transform="translate(1.65 -8.43) rotate(7.86)"/><rect class="cls-1" x="76.05" y="20.69" width="2.53" height="15.36" transform="translate(38.64 101.08) rotate(-82.14)"/><rect class="cls-1" x="72.68" y="7.42" width="2.53" height="15.36" transform="translate(41.33 -52.96) rotate(52.86)"/><path class="cls-1" d="M53.19,94.44h0C36.7,92.09,19.83,89.73,2.7,87.38,19.83,89.73,36.7,92.09,53.19,94.44Z"/><path class="cls-1" d="M10.57,16.79c-.27,1.33-.53,2.66-.8,4,.27-1.32.53-2.65.8-4Z"/><path class="cls-1" d="M48.09,36.81a6.37,6.37,0,0,0-5.49,3.1,13.85,13.85,0,0,0-2.1,7.94V48a13.93,13.93,0,0,0,2.13,8,6.44,6.44,0,0,0,5.56,3.15A6.34,6.34,0,0,0,53.71,56a14,14,0,0,0,2.07-7.93V48a13.93,13.93,0,0,0-2.14-8A6.48,6.48,0,0,0,48.09,36.81Z"/><path class="cls-1" d="M22.49,77.67a1,1,0,0,0-.47.92v0a1,1,0,0,0,.38.79,1.65,1.65,0,0,0,1,.29,2.21,2.21,0,0,0,1.42-.44,1.38,1.38,0,0,0,.55-1.12v-.45a3.8,3.8,0,0,0-1.61-.33A2.21,2.21,0,0,0,22.49,77.67Z"/><path class="cls-1" d="M44.29,74.39a2.14,2.14,0,0,0-1.68.7A2.47,2.47,0,0,0,42,76.81v0a2.48,2.48,0,0,0,.66,1.74,2.33,2.33,0,0,0,3.35,0,2.47,2.47,0,0,0,.63-1.72v0A2.51,2.51,0,0,0,46,75.11,2.18,2.18,0,0,0,44.29,74.39Z"/><path class="cls-1" d="M53.88,81.44a6,6,0,0,1-3.81-1.35l1.08-1.66A4.81,4.81,0,0,0,54,79.5c.71,0,1.06-.22,1.06-.67v0a1,1,0,0,0,0-.17.6.6,0,0,0-.09-.15l-.15-.12a1,1,0,0,0-.19-.12,1.56,1.56,0,0,1-.22-.1l-.26-.09L53.8,78l-.31-.09-.32-.09a7.46,7.46,0,0,1-1-.34,4.08,4.08,0,0,1-.82-.47,2,2,0,0,1-.65-.77,2.53,2.53,0,0,1-.22-1.09v0A2.51,2.51,0,0,1,51.45,73a3.52,3.52,0,0,1,2.32-.76,5.76,5.76,0,0,1,3.31,1l-1,1.74a5,5,0,0,0-2.4-.83,1.13,1.13,0,0,0-.69.18.51.51,0,0,0-.24.43v0q0,.45,1.53,1l.28.1c.38.13.71.26,1,.37a6.21,6.21,0,0,1,.83.48c.09.07.16.15.24.22q1.53-8.14,2.83-16.3l-.14.18A14,14,0,0,1,48.09,66,13.91,13.91,0,0,1,36.91,60.9a19.37,19.37,0,0,1-4.3-12.85V48A19.35,19.35,0,0,1,37,35a14,14,0,0,1,11.23-5.17A13.92,13.92,0,0,1,59.35,35a17.61,17.61,0,0,1,2.95,5c.6-5.28,1.11-10.56,1.47-15.83-18.07-2.47-35.84-4.95-53.2-7.43-.27,1.33-.53,2.66-.8,4q-1.5,7.41-2.89,14.82a18.14,18.14,0,0,1,4.39-3.87A14.11,14.11,0,0,1,18.64,30a12.58,12.58,0,0,1,8.73,3,10,10,0,0,1,3.3,7.84v.1A11.61,11.61,0,0,1,29.57,46a14.14,14.14,0,0,1-2.85,4,59.62,59.62,0,0,1-5.24,4.42l-5.69,4.39H31v6.64H5.15V59.33l11.64-9.54a31.07,31.07,0,0,0,4.74-4.56,6.19,6.19,0,0,0,1.3-3.82,4.31,4.31,0,0,0-1.3-3.35,4.79,4.79,0,0,0-3.39-1.2,6.05,6.05,0,0,0-3.52,1.08A17.93,17.93,0,0,0,11,41.56L6.47,37.91A446.72,446.72,0,0,0,0,87l2.7.37c17.13,2.35,34,4.71,50.49,7.06C54.12,90,55,85.49,55.86,81A4.39,4.39,0,0,1,53.88,81.44Zm-22.64-12a1.55,1.55,0,0,1,1.27-.57,4.2,4.2,0,0,1,1.41.32,4.06,4.06,0,0,0,1.08.33.81.81,0,0,0,.56-.19A2.68,2.68,0,0,0,36,68.7l1.34.42a4.71,4.71,0,0,1-.78,1.71,1.55,1.55,0,0,1-1.28.58,4,4,0,0,1-1.4-.33,4.42,4.42,0,0,0-1.08-.32.75.75,0,0,0-.56.19,2.08,2.08,0,0,0-.39.62l-1.34-.41A4.69,4.69,0,0,1,31.24,69.44ZM25.32,81.27v-1a3.44,3.44,0,0,1-2.69,1.13,3.31,3.31,0,0,1-2.18-.72,2.47,2.47,0,0,1-.87-2v0a2.5,2.5,0,0,1,1-2.12,4.36,4.36,0,0,1,2.61-.71,6.78,6.78,0,0,1,2.18.36v-.14c0-1.09-.64-1.63-1.91-1.63a7.13,7.13,0,0,0-2.45.48L20.35,73a8.38,8.38,0,0,1,3.44-.71,4.12,4.12,0,0,1,3,1,3.85,3.85,0,0,1,1,2.83v5.16Zm10.06,0v-5A2,2,0,0,0,35,75a1.39,1.39,0,0,0-1.12-.46,1.46,1.46,0,0,0-1.15.46,1.89,1.89,0,0,0-.43,1.34v5H29.76V72.38h2.52v1.26a3.24,3.24,0,0,1,2.61-1.42,2.83,2.83,0,0,1,2.22.88,3.46,3.46,0,0,1,.79,2.42v5.75Zm13.73-4.43a4.42,4.42,0,0,1-1.38,3.29,4.78,4.78,0,0,1-3.44,1.34,4.71,4.71,0,0,1-3.43-1.34,4.36,4.36,0,0,1-1.37-3.25v0a4.42,4.42,0,0,1,1.39-3.28,4.76,4.76,0,0,1,3.44-1.34,4.69,4.69,0,0,1,3.42,1.33,4.4,4.4,0,0,1,1.37,3.26Z"/></svg>