<svg xmlns="http://www.w3.org/2000/svg" xmlns:xlink="http://www.w3.org/1999/xlink" viewBox="0 0 256.53 424.48"><defs><style>.cls-1{fill:none;}.cls-2{isolation:isolate;}.cls-3{fill:#f1ece8;}.cls-4{opacity:0.22;fill:url(#linear-gradient);}.cls-4,.cls-6{mix-blend-mode:multiply;}.cls-5{fill:#e1e3f2;}.cls-6{opacity:0.41;fill:url(#linear-gradient-2);}.cls-7{fill:#d3c5be;}.cls-8{fill:#2d346a;}.cls-9{fill:#b2a29e;}.cls-10{clip-path:url(#clip-path);}.cls-11{fill:#cbccda;}.cls-12{fill:#a1a4bc;}.cls-13{fill:url(#linear-gradient-3);}</style><linearGradient id="linear-gradient" x1="63.41" y1="301.19" x2="203.55" y2="-49.72" gradientUnits="userSpaceOnUse"><stop offset="0.13" stop-color="#fff" stop-opacity="0"/><stop offset="0.9" stop-color="#c9b3a9"/></linearGradient><linearGradient id="linear-gradient-2" x1="62.51" y1="446.99" x2="205.26" y2="240.51" gradientUnits="userSpaceOnUse"><stop offset="0.47" stop-color="#fff"/><stop offset="0.55" stop-color="#fafafb"/><stop offset="0.64" stop-color="#ececf1"/><stop offset="0.74" stop-color="#d4d5e0"/><stop offset="0.84" stop-color="#b3b5c9"/><stop offset="0.95" stop-color="#888dab"/><stop offset="1" stop-color="#72779b"/></linearGradient><clipPath id="clip-path"><rect class="cls-1" x="21.39" y="34.93" width="213.62" height="323.27"/></clipPath><linearGradient id="linear-gradient-3" x1="76.56" y1="249.36" x2="188.86" y2="-31.82" gradientUnits="userSpaceOnUse"><stop offset="0.13" stop-color="#fff" stop-opacity="0"/><stop offset="0.25" stop-color="#fff" stop-opacity="0.01"/><stop offset="0.36" stop-color="#fdfdfe" stop-opacity="0.06"/><stop offset="0.46" stop-color="#fbfbfd" stop-opacity="0.13"/><stop offset="0.56" stop-color="#f8f8fc" stop-opacity="0.24"/><stop offset="0.65" stop-color="#f4f5fa" stop-opacity="0.37"/><stop offset="0.75" stop-color="#eff0f8" stop-opacity="0.53"/><stop offset="0.84" stop-color="#e9ebf6" stop-opacity="0.73"/><stop offset="0.93" stop-color="#e3e4f3" stop-opacity="0.95"/><stop offset="0.95" stop-color="#e1e3f2"/></linearGradient></defs><g class="cls-2"><g id="Layer_6" data-name="Layer 6"><rect class="cls-3" x="0.06" width="256.18" height="353.96"/><rect class="cls-4" x="0.06" width="256.18" height="278.18"/><rect class="cls-5" y="302.17" width="256.51" height="122.31"/><rect class="cls-6" y="302.3" width="256.51" height="99.19"/><polygon class="cls-7" points="256.53 0 234.73 9.58 234.73 401.4 256.53 423.42 256.53 0"/><polygon class="cls-8" points="256.53 406.15 234.73 384.61 234.73 401.43 256.53 423.42 256.53 406.15"/><polygon class="cls-7" points="0.06 0 21.87 9.58 21.87 401.4 0.06 423.42 0.06 0"/><polygon class="cls-8" points="0.06 406.15 21.87 384.61 21.87 401.43 0.06 423.42 0.06 406.15"/><polygon class="cls-9" points="0.06 0 256.24 0 234.53 9.58 21.87 9.58 0.06 0"/><g class="cls-10"><rect class="cls-11" x="59.08" y="34.61" width="130.69" height="178.53"/><path class="cls-12" d="M327.76,181.18c-.37-5-1.12-9.94-1.27-14.92a12.81,12.81,0,0,0-2.36-7.58,12.16,12.16,0,0,1-2.18-3.94,4.32,4.32,0,0,0-2.58-3.28c-2.63-1.06-5.33-2-7.95-3-2.08-.86-4.08-1.91-6-2.83.64-1.93,1.12-3.59,1.75-5.2a3.25,3.25,0,0,1,1.26-1.48c2.18-1.3,2.77-2.48,2.42-5-.3-2.06-.32-4.17-.82-6.17a19,19,0,0,0-2.25-6c-4.78-7.17-13.27-5.22-18.74-2.15a3.64,3.64,0,0,0-1.52,1.94,59.35,59.35,0,0,0-2.62,9.39,11.08,11.08,0,0,0,1.05,5.85c1.07,2.32,2.3,4.38,2,7.16s-.72,3.52-3.5,4.08c-2.17.43-4.31,1.1-6.45,1.68-1.07.29-1.81.73-1.89,2.1s-2.32,2.8-3.23,2.25c-2.18-1.35-4.39-2.68-6.53-4.09a4,4,0,0,1-1.26-1.49c-1-1.79-1.85-3.62-3-5.82,1.12-2.08,2.5-4.62,3.85-7.18a4.18,4.18,0,0,0,.44-1.39,16.37,16.37,0,0,0-4.77-14.69,5,5,0,0,0-5.21-1.41c-2,.73-3.79.28-5.7,0a6.73,6.73,0,0,0-6.53,2.42,22.85,22.85,0,0,0-2.24,2.73c-1.09,1.9-2.6,3.84-2.8,5.87-.27,2.72.61,5.5-.26,8.32-.28.93.43,2.17.82,3.79-3.17-1.38-5.79-2.69-8.52-3.66-3.05-1.09-4.52-3.44-5.83-6.09.85-1.13,3.1-.82,2.7-3-.24-1.33,2.55-1.93,1.19-3.58.71-.53,2.12-1.29,2-1.56a30.75,30.75,0,0,0-2.07-4.32A9.16,9.16,0,0,0,229,116a7,7,0,0,0-2-2c-1.11-1-1.81-1.92-.54-3.32.27-.29.1-1,.12-1.3a8.46,8.46,0,0,1-2.1.88c-.2,0-.84-1-.71-1.24a13.29,13.29,0,0,1,1.9-1.94,7,7,0,0,0-1.21-2.11c-1.1-1-1.7-2.52-4-2.26-1.27.15-2.81-.7-4.29.09-.18.1-.61-.23-.92-.39a51.34,51.34,0,0,0-4.93-2.57c-1.24-.49-2.7-.69-3.51,1.29a6.93,6.93,0,0,1,1.4-.16c.44,0,1.07.08,1.23.35a1.31,1.31,0,0,1-.18,1.27c-.37.3-1.32.54-1.47.36-1.64-2-2.58-.56-3.66.63,1.7.58,1.32,1.66.48,2.49a33,33,0,0,1-3.29,2.54.63.63,0,0,0-.18.33l2,2.34-2.13.65.39,1.39-3.14,1.09,1.5.68-1.68,3,2.83,1.49c-1.54.85-3.41,1.76-2.45,4a31,31,0,0,0,2.62,4.11,20.08,20.08,0,0,1,1,2l2.69,5.49a7.64,7.64,0,0,1-5.08,3.14c-5.78,1.13-9.7,4.23-11,10.28-.82,3.95-1.9,7.84-2.86,11.77-.27,1.08-.53,2.16-.79,3.24-.35,3.59-.63,7.18-.66,10.79a65.15,65.15,0,0,0,.58,9.28,11.29,11.29,0,0,0,4.13,1.94c1.84.22,3.82-.7,5.72-1.12,2,1.49,1.62,3.67,1.11,5.92-1.66,7.36-3.51,14.69-4.84,22.11a86.84,86.84,0,0,0-1.59,16c.11,11.19.8,22.38,1.24,33.57,0,.89-.11,1.8-.06,2.7.12,2,.31,3.92.45,5.88a7.39,7.39,0,0,1,0,1.56c-.11.83-.38,1.64-.42,2.47-.07,1.67-.06,3.35,0,5,.06,3.59.15,7.19.25,10.78,0,.4.17.8.14,1.19-.2,2.6-.58,5.21-.62,7.82-.08,6.52.48,13.1-.14,19.56-.56,5.83,1.41,10.93,2.86,16.23a2.93,2.93,0,0,0,1.87,1.86,56.46,56.46,0,0,0,7.91.21c2.32-.1,3.54-1.4,3.58-3.76,0-1.79-.36-3.6-.38-5.4a5.56,5.56,0,0,1,.63-3,4.12,4.12,0,0,0,.2-4.83,3.22,3.22,0,0,1-.23-2.44,5.88,5.88,0,0,0-.38-5.38,4.36,4.36,0,0,1,.31-4.63,5.32,5.32,0,0,0,.89-3.06c-.25-3.05-.89-6.06-1.17-9.11-.52-5.67-.72-11.38-1.4-17-.34-2.87.45-5.53.73-8.27.48-4.7,1.39-9.35,2-14,.46-3.36.56-6.76,1.17-10.08.93-5,3.44-9.71,2.82-15,0-.33.75-.76,1.15-1.14a4.52,4.52,0,0,1,.79,1.41c.13,1-.11,2.07.11,3a157.33,157.33,0,0,1,3.85,24c.4,6.27,2.68,12.4,4,18.61.54,2.43.9,4.9,1.26,7.36.22,1.47.3,3,.41,4.46a7,7,0,0,1,0,2.28c-1,3.66-.58,7.5-1.89,11.22-1.25,3.54-1.31,7.51-1.71,11.31-.13,1.2-.6,1.55-1.63,2a50.78,50.78,0,0,0-6.42,3.34,2.36,2.36,0,0,0-.88,2.07,2.44,2.44,0,0,0,1.83,1.3,59.86,59.86,0,0,0,9.14.64c2.65-.1,3.39,1.71,4.19,3.39a19.85,19.85,0,0,1,1.67,10.53c-.26,2.82,1.23,4.27,4,4.26,1.32,0,2.66-.19,4-.08,4.38.39,7-4.11,6-7.73a4.62,4.62,0,0,1,.08-1.95,30.3,30.3,0,0,0,.72-3.18c.17-2-.52-4.38.38-5.85a10.27,10.27,0,0,0,1.32-5.81c.05-5.28.67-10.57.41-15.82-.38-7.55-1.08-15.12-2.18-22.6a19.27,19.27,0,0,1,.46-8.38c1.38-4.9.66-9.95-.26-14.91-.39-2.08.34-3.41,2.43-4.31a13.87,13.87,0,0,1,.92,1.8c1.52,4.77,3.1,9.52,4.44,14.34a12,12,0,0,1,.13,4.75c-1.13,8.12-2.56,16.21-3.5,24.36-.33,2.88.61,5.89.62,8.84,0,4.32-.17,8.64-.55,12.94-.19,2-.1,3.73,1.62,4.77l-3.56,6.05c-.91,1.59-.59,2.59,1.17,3.45,5.32,2.58,10.17,1,15-1.38a1.77,1.77,0,0,0,.84-.89c.72-2,1.38-4.06,2.18-6.48l2.06-.36,2.62-.45c.55,3.57,2.41,5.32,6.63,5.44,6.32.2,12.65.15,19-.05,5.74-.18,5.78-.4,6-6.17a41.12,41.12,0,0,1,.43-6.86c.7-3.34,2.26-6.53,2.7-9.89,1.22-9.17,2.06-18.4,3-27.61.32-3.1,1.46-6.37-1.65-8.75,2.84-3.5,2.84-3.5.62-7.31-.07-.12-.21-.23-.22-.35a5.61,5.61,0,0,1-.07-1.95c2-6.5,4.07-13,6.06-19.48.5-1.65.61-3.43,1.17-5.06,1.68-4.9,2.92-9.77.44-14.78a3,3,0,0,1-.15-1c3.13-1.24,3.15-1.24,3.12-4.87,0-3.27-.07-6.55-.25-9.81a3.62,3.62,0,0,1,1.79-3.66c2.16-1.39,4.32-2.82,6.37-4.37,1.89-1.42,3.88-3,4-5.56A82.78,82.78,0,0,0,327.76,181.18ZM276,304.72c-.6,2.34-1.26,4.65-4.21,5.29-2.07.45-3,.1-3.12-2s-.06-4-.05-6c0-4.37,0-8.64-1-13s-.7-9-1-13.49c-.57-7.7.1-15.42-.37-23.12-.06-1,1-2,1.14-3,.44-2.71.77-5.45.95-8.19a32.33,32.33,0,0,1,1.26-7.5c.83-2.71.21-5.87.17-8.83,0-2.56-.19-5.11-.12-7.67,0-.49.81-1,1.38-1.59,2.23,2.58,1.48,5.18,1.31,7.7-.1,1.52-.18,3-.32,4.55-.06.67-.25,1.34-.37,2-.54,3.1-1.12,6.2-1.61,9.32-.52,3.27-1,6.56-1.42,9.85-.15,1.17-.15,2.36-.28,3.54-.23,2.12-.67,4.22-.74,6.35-.1,2.88.08,5.78.13,8.67,0,1.07,0,2.14,0,2.64.55,2,1,3.53,1.43,5.08a18.3,18.3,0,0,0,1.15,3.49c.94,1.76,2.2,3.35,3.14,5.1a4.71,4.71,0,0,1,.06,2.19c0,.66-.43,1.49-.17,2,1.59,2.83.72,5.93,1.19,8.87.28,1.73,1,3.38,1.37,5.1A6.28,6.28,0,0,1,276,304.72Zm16-20.9a31.24,31.24,0,0,1-2.46,5.21l-.53-.13-1-4.42c-.07-.34,0-.78-.2-1-1.57-2-1.33-4.31-1.23-6.54a8.37,8.37,0,0,0-2.29-6c-.91-1.07-1.25-2.36-.14-3.38,2.56-2.33,2.64-5.31,2-8.23-.79-3.65.95-6.39,2.73-9.28,0,1.9,0,3.81,0,5.71-.07,2.67-.12,5.34-.36,8-.12,1.41-.77,2.78-.87,4.19a8.53,8.53,0,0,0,.67,2.81,13,13,0,0,0,.56,1.51,69.26,69.26,0,0,1,3,7.05A8.51,8.51,0,0,1,292,283.82Z"/><path class="cls-12" d="M106.58,167.83a103.73,103.73,0,0,0-.15,31.56c.35,2.41-.16,4.93,0,7.39.14,1.93.77,3.82,1.08,5.75a33.14,33.14,0,0,0,3.2,8.72c1.61,3.44,2.53,7.21,3.76,10.84,1,2.95,2.19,5.84,3,8.84.47,1.83.21,3.83.49,5.72.43,3,1,5.91,1.58,8.86a1.94,1.94,0,0,1,.07.33c-.23,5.19,1.67,10.12,1.89,15.26.08,1.93-.47,3.94.86,5.72a1.74,1.74,0,0,1,0,1.63c-1.12,1.35-.45,2.63-.32,4.06a44.71,44.71,0,0,1-.29,6.42c-.07,1.52,0,3-.08,4.56-.08,3.39-.22,6.77-.24,10.16,0,1.79.18,3.58.26,5.37.16,3.43.28,6.87.44,10.3.16,3.23.15,3.46-.32,4.22,1.85,1.18,3.67,2.42,5.56,3.51,1.24.72,2.63,1.16,3.9,1.84,1.11.59,2.56,1.06,1.47,3.18h5.77c2.35,0,4,1.57,3.61,3.59a9.35,9.35,0,0,1-1.51,2.49l1,1c-11,3.1-21.89,3.65-33,3.33,0-.27.21-.56.13-.73-1.65-3.27-.94-6.69-.7-10.09.09-1.19.76-2.72-1.4-3.07.15-.38.28-.69.28-.68-.6-.81-1.49-1.5-1.39-2,.12-.69.92-1.36,1.58-1.83s.87-.69.27-1.41c-1.51-1.79-1.2-3.86-.77-5.94a4.5,4.5,0,0,0,.12-2.23,47.72,47.72,0,0,1-2.26-17.59c.09-2.92.53-5.86.27-8.74-.15-1.7-.48-3.29.19-4.92a.79.79,0,0,0-.12-.64,3.18,3.18,0,0,1,.29-4.41c1-1.09-.33-2.32-1.23-2.85-1.62-1-2-2.21-2.34-4a34.58,34.58,0,0,0-4.34-11.85c-2.08-3.55-3.77-7.33-5.75-10.95a15.29,15.29,0,0,0-2.33-2.59l-.61.29a14.64,14.64,0,0,0-.23,1.73,111,111,0,0,1-1.77,17.71c-.5,2.94-.09,6.07.16,9.1.17,2.14.31,4.12-1.12,6-1.26,1.6,0,3.38-.1,5.08s-.19,3.23-.29,4.84a4.43,4.43,0,0,0-.13,1c.48,2.82.86,5.68,1.55,8.46a39.22,39.22,0,0,1,1.16,14.78,2.16,2.16,0,0,0,1,1.76c2.46.81,2.94,2.15,1.63,4a20,20,0,0,0,.67,4,11.26,11.26,0,0,0,2,2.84c.69.82,1.49,1.56,2.25,2.31,2.39,2.38,1.88,4.24-.37,6.67-2,2.17-4.76,2.67-7.06,3.85s-5.49.47-8.29.41c-.87,0-1.68-2.31-1-3.35,1.42-2.33.52-4.2-.47-6.37a8.57,8.57,0,0,1,0-6.93c.32-.77,0-1.82-.07-2.7-.26,0-.38-.08-.47,0-3.22,1-4.37,0-3.83-3.31a9,9,0,0,0-.39-2.82c-.34-1.9-.75-3.78-1-5.68-.57-3.92-1.18-7.84-1.55-11.78-.29-3-.28-6.09-.33-9.14,0-2.41.12-4.83,0-7.24,0-1.51-.33-3-.47-4.53a3.79,3.79,0,0,1,0-1.68c1.1-2.61,0-5.17,0-7.75,0-.29-.15-.61,0-.84,1.79-4.34-.07-8.47-.71-12.67q-.81-5.28-1.63-10.56c0-.11,0-.26,0-.33-1.8-2.14-.76-4.7-1-7-.15-1.93-1.71-2.82-2.42-4.3-.63-1.3-1.1-2.32-.45-3.74a3.29,3.29,0,0,0,.08-2.35c-1.15-2.69.16-5.27.18-7.9a20.31,20.31,0,0,1,1-4.28c-1.13-.87-.91-2.18-.72-3.45.14-.94.36-1.86.56-2.8,0-.21.06-.56.19-.62,2-.86,1.65-2.09.63-3.5-.12-.16,0-.54.07-.8a69.63,69.63,0,0,0,2.35-16.6c.06-1.65-.84-3.36-1.45-5-2.14-5.81-4.36-11.6-6.52-17.4-.18-.47,0-1.07-.26-1.49-.38-.71-.86-1.8-1.43-1.88-2.22-.33-3-1.86-3.53-3.65s-1.3-3.41-2-5.08c-1.13-2.73-1.35-5.87-1.69-8.86a4.21,4.21,0,0,1,1.15-2.72c3.27-3.75,6.55-7.5,10-11.06A71.14,71.14,0,0,1,68.89,123a5.16,5.16,0,0,0,1.93-4.22,23.16,23.16,0,0,1,1.47-8.21c.83-1.88,3-3.27,4.73-4.6A19.51,19.51,0,0,1,82.17,103a14.59,14.59,0,0,1,4.6-.32,8.39,8.39,0,0,1,1.87.42l.23-.48-1.76-1.3c1.33.07,2.74.13,4.15.23a.72.72,0,0,1,.54.33c.71,1.89,2.3,1.43,3.7,1.35l2.13,5.32h.68c-.42.93-.89,1.85.26,1.89v6.1c1.82.84,3.56,1.53,5.17,2.46a3,3,0,0,1,1,1.89,28.54,28.54,0,0,1,.53,4.69,8.12,8.12,0,0,1-.51,3c-.64,1.75-1.49,3.42-2.24,5.12-1.14,2.56-.54,4.87,1.06,7a1.63,1.63,0,0,0,.86.68c3.61.43,5.81,2.94,7,5.83,1.72,4.24,3.28,8.57,4.78,12.88.82,2.36.34,5.27,0,7.88-.26,2.26-4.49,4.78-6.53,3.83-1.22-.58-2-2.16-2.91-3.31A2.45,2.45,0,0,1,106.58,167.83ZM95.51,124.55l-.59,0c-.44,1.88-.83,3.78-1.36,5.64a18.68,18.68,0,0,1-1.2,2.57,4.5,4.5,0,0,0-.63,1.43,16.88,16.88,0,0,0,0,3.89,2.58,2.58,0,0,0,1.34,1.76,27.9,27.9,0,0,0,4.26,1C96.81,135.41,93.36,130.36,95.51,124.55ZM73,130.61l-6.35,9.21.24.52c1-.23,2-.39,2.87-.71a28.28,28.28,0,0,0,4.34-1.74A3.14,3.14,0,0,0,75.19,136C75.78,133.85,73.3,132.7,73,130.61Z"/></g><rect class="cls-13" x="21.87" y="9.58" width="213.14" height="219.78"/></g></g></svg>