<svg xmlns="http://www.w3.org/2000/svg" xmlns:xlink="http://www.w3.org/1999/xlink" viewBox="0 0 256.53 424.48"><defs><style>.cls-1{isolation:isolate;}.cls-2{fill:#f1ece8;}.cls-3{opacity:0.22;fill:url(#linear-gradient);}.cls-3,.cls-5{mix-blend-mode:multiply;}.cls-4{fill:#e1e3f2;}.cls-5{opacity:0.41;fill:url(#linear-gradient-2);}.cls-6{fill:#d3c5be;}.cls-7{fill:#2d346a;}.cls-8{fill:#b2a29e;}</style><linearGradient id="linear-gradient" x1="63.41" y1="301.19" x2="203.55" y2="-49.72" gradientUnits="userSpaceOnUse"><stop offset="0.13" stop-color="#fff" stop-opacity="0"/><stop offset="0.9" stop-color="#c9b3a9"/></linearGradient><linearGradient id="linear-gradient-2" x1="62.51" y1="446.99" x2="205.26" y2="240.51" gradientUnits="userSpaceOnUse"><stop offset="0.47" stop-color="#fff"/><stop offset="0.55" stop-color="#fafafb"/><stop offset="0.64" stop-color="#ececf1"/><stop offset="0.74" stop-color="#d4d5e0"/><stop offset="0.84" stop-color="#b3b5c9"/><stop offset="0.95" stop-color="#888dab"/><stop offset="1" stop-color="#72779b"/></linearGradient></defs><g class="cls-1"><g id="Layer_6" data-name="Layer 6"><rect class="cls-2" x="0.06" width="256.18" height="353.96"/><rect class="cls-3" x="0.06" width="256.18" height="278.18"/><rect class="cls-4" y="302.17" width="256.51" height="122.31"/><rect class="cls-5" y="302.3" width="256.51" height="99.19"/><polygon class="cls-6" points="256.53 0 234.73 9.58 234.73 401.4 256.53 423.42 256.53 0"/><polygon class="cls-7" points="256.53 406.15 234.73 384.61 234.73 401.43 256.53 423.42 256.53 406.15"/><polygon class="cls-6" points="0.06 0 21.87 9.58 21.87 401.4 0.06 423.42 0.06 0"/><polygon class="cls-7" points="0.06 406.15 21.87 384.61 21.87 401.43 0.06 423.42 0.06 406.15"/><polygon class="cls-8" points="0.06 0 256.24 0 234.53 9.58 21.87 9.58 0.06 0"/></g></g></svg>