<svg id="Layer_6" data-name="Layer 6" xmlns="http://www.w3.org/2000/svg" viewBox="0 0 516.3 307.86"><defs><style>.cls-1{fill:#58595b;}.cls-2{fill:#404041;}.cls-3{fill:#231f20;}.cls-4{fill:#4085bc;}.cls-5{fill:#fff;}.cls-6{fill:#f1f1f2;}.cls-7{isolation:isolate;}</style></defs><rect class="cls-1" width="516.3" height="307.86"/><rect class="cls-2" x="2.24" y="1.55" width="511.69" height="305.51"/><rect class="cls-3" x="23.48" y="22" width="469.2" height="264.62"/><rect class="cls-4" x="26.72" y="25" width="462.74" height="258.62"/><circle class="cls-5" cx="502.97" cy="298.04" r="1.9"/><path class="cls-6" d="M239.05,127.58a16.16,16.16,0,1,1,16.53,15.79A16.16,16.16,0,0,1,239.05,127.58Z"/><path class="cls-6" d="M228.62,90.6a8.85,8.85,0,0,0-2.07,2.16l-9.34,17.71c-.18.36-.38.79-.56,1.25l14.56,4.15a5.61,5.61,0,0,0,5.82-2.2,20.33,20.33,0,0,1,10.95-8,5.49,5.49,0,0,0,3.85-4.85l.59-15.13a7.93,7.93,0,0,0-1.37.16l-19.72,3.41A8.56,8.56,0,0,0,228.62,90.6Z"/><path class="cls-6" d="M282,90.74a8.43,8.43,0,0,0-2.7-1.3l-19.64-3.57a13.56,13.56,0,0,0-1.43-.13l.49,15.14a5.51,5.51,0,0,0,3.82,4.88,20.61,20.61,0,0,1,10.89,8,5.54,5.54,0,0,0,5.79,2.21l14.6-4a10.66,10.66,0,0,0-.57-1.25l-9.2-17.81A9.05,9.05,0,0,0,282,90.74Z"/><path class="cls-6" d="M298.26,141a8.83,8.83,0,0,0,.39-3l-2.91-19.79a12.26,12.26,0,0,0-.28-1.34l-14.29,5.27a5.6,5.6,0,0,0-3.39,5.22,19.74,19.74,0,0,1-.95,6.78,20.31,20.31,0,0,1-3.16,6.09,5.54,5.54,0,0,0-.18,6.21L282,159a12.77,12.77,0,0,0,1-.94l13.9-14.39A8.69,8.69,0,0,0,298.26,141Z"/><path class="cls-6" d="M255.4,172.45a9.08,9.08,0,0,0,3-.55L276.23,163c.35-.18.76-.41,1.19-.68L268,150.42a5.55,5.55,0,0,0-6-1.61,20.36,20.36,0,0,1-13.52,0,5.58,5.58,0,0,0-6,1.66l-9.25,12.06c.43.25.82.5,1.2.67l18,8.75A9,9,0,0,0,255.4,172.45Z"/><path class="cls-6" d="M212.19,141.24a8.84,8.84,0,0,0,1.45,2.64l14,14.29a11.25,11.25,0,0,0,1,.93l8.43-12.59a5.55,5.55,0,0,0-.31-6.2,20.35,20.35,0,0,1-4.19-12.85,5.55,5.55,0,0,0-3.43-5.18l-14.29-5.2a12.26,12.26,0,0,0-.28,1.34l-2.82,19.82A9.26,9.26,0,0,0,212.19,141.24Z"/><g class="cls-7"><path class="cls-6" d="M206.64,186.07l-1,12.64c0,.23,0,.94,0,1.17a2.27,2.27,0,0,0,.67,1.9,2.8,2.8,0,0,1-2.42,1.14c-1.59,0-2.08-.94-2.08-2.52,0-.38.07-1.12.1-1.49l.84-8.48-5.42,12h-2.47l-2.08-12-2.5,12h-2.65l3.79-16.33h4.43l1.83,10.29,4.7-10.29Z"/><path class="cls-6" d="M219.92,199.26a7.2,7.2,0,0,0-.12,1,1,1,0,0,0,.94,1.09,2.46,2.46,0,0,1-2.48,1.51,2,2,0,0,1-2.08-1.42,4.61,4.61,0,0,1-3.66,1.42c-2.32,0-3.54-1.12-3.54-3.32a25.51,25.51,0,0,1,.67-4.48l1.09-5.32,3.84-.39-1.29,6a22.39,22.39,0,0,0-.64,4.18c0,.87.24,1.76,1.26,1.76,1.56,0,2.27-2,2.55-3.54l1.48-8,3.86-.39Z"/><path class="cls-6" d="M227.91,199.26a6.87,6.87,0,0,0-.13,1,1,1,0,0,0,1,1.09,2.51,2.51,0,0,1-2.53,1.51,2,2,0,0,1-2.25-2.11,36,36,0,0,1,.69-4.43l2.23-11.28,3.89-.39Z"/><path class="cls-6" d="M238.44,189.78h1.93l-.22,1.12h-1.93l-1.63,8.36a6.87,6.87,0,0,0-.13,1,1,1,0,0,0,1,1.09,2.5,2.5,0,0,1-2.53,1.51,2,2,0,0,1-2.25-2.13,50.93,50.93,0,0,1,1.07-6.26l.71-3.61h-1.6l.09-.75a15.77,15.77,0,0,0,5.1-2.94h1Z"/><path class="cls-6" d="M245.27,199.26a6.87,6.87,0,0,0-.13,1,1,1,0,0,0,1,1.09,2.5,2.5,0,0,1-2.53,1.51,2,2,0,0,1-2.25-2.11,34.25,34.25,0,0,1,.7-4.43l1.31-6.58,3.88-.39Zm3-13.34c0,1.19-1,1.78-2.3,1.78s-2.23-.59-2.23-1.73,1-1.8,2.32-1.8S248.24,184.78,248.24,185.92Z"/><path class="cls-6" d="M258.75,189.29c1.68,0,2.74.62,3.12,2.1a4.59,4.59,0,0,1,4.18-2.1c2.12,0,3.34,1,3.34,3,0,2.35-1.54,6.26-1.54,7.87,0,.72.3,1.11,1,1.19a2.5,2.5,0,0,1-2.53,1.51,2,2,0,0,1-2.25-2.21c0-2,1.49-6.23,1.49-8,0-.86-.37-1.46-1.22-1.46-1.73,0-2.35,2.48-2.64,4l-1.41,7.2-3.86.4,1.31-6.41a23.23,23.23,0,0,0,.62-3.76c0-.84-.37-1.44-1.24-1.44-1.73,0-2.38,2.33-2.7,4L253,202.4l-3.89.4,2.55-13,3.19-.39-.34,2.32A4.37,4.37,0,0,1,258.75,189.29Z"/><path class="cls-6" d="M283.31,192.21c0,2.67-2.45,4.23-6.31,4.33-.4,0-.92,0-1.29,0a11.79,11.79,0,0,0-.07,1.26c0,1.58.54,2.5,2.15,2.5a3.7,3.7,0,0,0,3.29-1.76,1.1,1.1,0,0,1,.62,1.09c0,1.83-2.28,3.27-5.1,3.27-3,0-4.72-1.64-4.72-5.18,0-4.23,2.45-8.43,7.67-8.43C281.55,189.29,283.31,189.93,283.31,192.21Zm-7.43,3.19c2.28,0,4.21-1.24,4.21-3.39,0-.89-.35-1.39-1.09-1.39C277.49,190.62,276.38,192.65,275.88,195.4Z"/><path class="cls-6" d="M295.85,199.26a7.21,7.21,0,0,0-.13,1,1,1,0,0,0,.94,1.09,2.44,2.44,0,0,1-2.47,1.51,2,2,0,0,1-2.08-1.42,4.63,4.63,0,0,1-3.59,1.42c-2.74,0-3.78-1.76-3.78-4.76,0-4.55,2.42-8.85,7.3-8.85a6.24,6.24,0,0,1,1.9.29l.84-4.5,3.84-.39Zm-4-8.49c-1.61,0-2.38,1.71-2.92,4.8a20.46,20.46,0,0,0-.45,3.71c0,1.14.27,2.08,1.36,2.08,1.59,0,2.28-2,2.55-3.54l1.17-6.45A2.73,2.73,0,0,0,291.84,190.77Z"/><path class="cls-6" d="M304.18,199.26a6.87,6.87,0,0,0-.13,1,1,1,0,0,0,1,1.09,2.49,2.49,0,0,1-2.52,1.51,2,2,0,0,1-2.26-2.11,34.25,34.25,0,0,1,.7-4.43l1.31-6.58,3.88-.39Zm3-13.34c0,1.19-1,1.78-2.3,1.78s-2.23-.59-2.23-1.73,1-1.8,2.32-1.8S307.15,184.78,307.15,185.92Z"/><path class="cls-6" d="M319.39,199.26a7.2,7.2,0,0,0-.12,1,1,1,0,0,0,.94,1.09,2.46,2.46,0,0,1-2.48,1.51,2,2,0,0,1-2.08-1.42,4.61,4.61,0,0,1-3.58,1.42c-2.75,0-3.79-1.76-3.79-4.76,0-4.57,2.43-8.85,7.3-8.85a6.2,6.2,0,0,1,2.5.49l3.19-.39Zm-4-8.49c-1.61,0-2.37,1.71-2.92,4.8a21.32,21.32,0,0,0-.44,3.71c0,1.14.27,2.08,1.36,2.08,1.58,0,2.27-2,2.55-3.54l1.16-6.45A2.73,2.73,0,0,0,315.38,190.77Z"/></g></svg>