<svg id="Layer_6" data-name="Layer 6" xmlns="http://www.w3.org/2000/svg" xmlns:xlink="http://www.w3.org/1999/xlink" viewBox="0 0 235.56 508.78"><defs><style>.cls-1{opacity:0.41;fill:url(#radial-gradient);}.cls-2{fill:#575d88;}.cls-3{fill:#8185a5;}.cls-4{fill:#c0c2d2;}.cls-5{fill:url(#linear-gradient);}.cls-6{fill:url(#linear-gradient-2);}.cls-7{fill:url(#linear-gradient-3);}</style><radialGradient id="radial-gradient" cx="1947.84" cy="5084.12" r="161.04" gradientTransform="translate(-1316.54 -203.74) scale(0.74 0.14)" gradientUnits="userSpaceOnUse"><stop offset="0" stop-color="#676b90"/><stop offset="0" stop-color="#6d7194" stop-opacity="0.96"/><stop offset="0.18" stop-color="#717597" stop-opacity="0.94"/><stop offset="0.34" stop-color="#7d809f" stop-opacity="0.86"/><stop offset="0.51" stop-color="#9093ae" stop-opacity="0.73"/><stop offset="0.67" stop-color="#acaec2" stop-opacity="0.55"/><stop offset="0.83" stop-color="#d0d1dc" stop-opacity="0.31"/><stop offset="0.99" stop-color="#fbfbfc" stop-opacity="0.03"/><stop offset="1" stop-color="#fff" stop-opacity="0"/></radialGradient><linearGradient id="linear-gradient" x1="51.93" y1="387.7" x2="51.93" y2="313.45" gradientUnits="userSpaceOnUse"><stop offset="0" stop-color="#c0c2d2" stop-opacity="0"/><stop offset="1" stop-color="#c0c2d2"/></linearGradient><linearGradient id="linear-gradient-2" x1="172.54" y1="383.48" x2="172.54" y2="298.85" xlink:href="#linear-gradient"/><linearGradient id="linear-gradient-3" x1="144.23" y1="311.03" x2="144.23" y2="268.44" xlink:href="#linear-gradient"/></defs><ellipse class="cls-1" cx="117.78" cy="487.38" rx="117.78" ry="21.4"/><ellipse class="cls-2" cx="118.27" cy="445.95" rx="59.74" ry="5.5"/><path class="cls-3" d="M178,479.05c0,3-26.74,5.51-59.73,5.52s-59.74-2.43-59.74-5.47V446c0,3,26.74,5.49,59.74,5.48S178,449,178,445.92Z"/><path class="cls-3" d="M198.66,299.31c4.85,9.31,4,20.88-.19,31.25l-31.85,79.49a21.88,21.88,0,0,1-23.46,13.47A163.21,163.21,0,0,0,90,424.85a21.85,21.85,0,0,1-22.38-9.47L27.84,354.76a53.34,53.34,0,0,1-7.07-39.9s.69-1,3.35-1.41c.67-.1.9-.47.87-1-.32-5.61.28-11.25,3.44-15.91A48.6,48.6,0,0,1,50.1,278.81c35.09-14.55,66.29-16.3,91.75-12.66a43.69,43.69,0,0,1,9,2.7,2,2,0,0,0,.94.14c1.35-.19,1.69-.76,3.57-.31a172,172,0,0,1,19.71,5.89,38,38,0,0,1,5.34,2.43c7.73,4.26,12.5,12.14,14.11,20.82.16.84.43,1.4.87,1.4C197.18,299.22,198.66,299.31,198.66,299.31Z"/><path class="cls-4" d="M169.28,444.47H61.37c4-10.74,30.08-13.5,33-48.71,3.8-45.28-40.07-139.56-39.19-161.32S71.79,187,76.46,176.78,76,150,76,150a25.48,25.48,0,0,1-9.87-10.37.53.53,0,0,0-1,.31l2.07,12.69c-12.05,4.9-26.47,0-26.47,0S45.86,128.4,47,110.43,65.73,97.28,69.81,85.6s-3.39-17.09-3.39-17.09-4.86-5.34-1.57-9.14,15.24-14.73,23.26-2.64c3.1,4.68,6,10.07,11.35,12.43,6.44,2.86,13.26.88,19.93.48,7.74-.46,16.44,3.47,19.09,11.19,1.72,5,3.89,9.4,5.46,14.45a95.52,95.52,0,0,0,9.29,20.23c2.23,3.78,4.89,7.29,7.17,11a183.53,183.53,0,0,1,9.7,17.74c1.55,3.31,4.19,8,3.67,11.82-.67,5-22,14.25-36.68,20.1-1.75.7-1.47,1.72-1.47,1.72,1.3,5.77,5.29,13.87,8.1,19.12,18.21,34-19.41,86-26.85,95.7a2.72,2.72,0,0,0-.08,3.2c3.86,5.56,15.89,26,23.72,83.38,1.85,13.53,5.56,27.13,12.81,38.82a62.52,62.52,0,0,0,8.08,10.46c3.44,3.56,7.9,6.21,10.72,10.36.67,1,1.63,2.44,1.29,3.7-.44,1.69-2.71,1.8-4.13,1.8"/><path class="cls-3" d="M41.32,149.49a3.44,3.44,0,0,0,2.58,4c4.38,1,12.53,2.27,20.28.13a3.48,3.48,0,0,0,2.49-3.91c-1.42-.27-2.86-.49-4.3-.7a58.77,58.77,0,0,0-7.82-.74,78.79,78.79,0,0,0-10.63.85l-1.89.24A4.86,4.86,0,0,0,41.32,149.49Z"/><path class="cls-4" d="M57.84,22.41a7.89,7.89,0,0,0-3.6,5.82,99,99,0,0,0-.15,10.48,66.64,66.64,0,0,0,1.73,13.12,32.15,32.15,0,0,0,5.24,11.85A17.9,17.9,0,0,0,71.4,70.49a6.44,6.44,0,0,0,2.93,0,15.51,15.51,0,0,0,4.1-1.75A21.09,21.09,0,0,0,84.55,63,35.53,35.53,0,0,0,90,51.43a75.62,75.62,0,0,0,2.49-19.69v-1a14.85,14.85,0,0,1-8.1-12.7S71,17.1,69.11,13.21A35.51,35.51,0,0,1,57.84,22.41Z"/><path class="cls-3" d="M106.6,303.94C114.08,318.65,148,388.79,142,440.33a4.69,4.69,0,0,1-4.67,4.14h-16a4.67,4.67,0,0,1-4.49-3.34c-4.08-13.76-20.64-68-44.95-126.82a39.46,39.46,0,0,1,0-30.22l13.83-33.25a4.09,4.09,0,0,1,.23-.47c2.06-3.72,29-50.68,62.29-28.79l.17.09c-2.37,33.25-33.38,68-33.38,68l-7.85,9.12A4.66,4.66,0,0,0,106.6,303.94Z"/><path class="cls-3" d="M135.8,133.24a42.94,42.94,0,0,0,8.66,14.89,21.79,21.79,0,0,0,2.7,2.47,1.45,1.45,0,0,0,.35.26c.22.07-.12-.11-.06-.13s-.21.32-.14.24a3.59,3.59,0,0,1-.39.39,24.54,24.54,0,0,1-3,2.28c-1.61,1.1-3.25,2.15-4.9,3.18q-5.64,3.52-11.42,6.78-2.4,1.36-4.84,2.67c-.58.31-1.17.61-1.76.91l-.7.34s-.2.09-.1,0,0,0-.06,0l-.25.11-.2.07c-.19.09.13,0,0,0l.84,0c-1.91-.53-3.86-1-5.81-1.33a27.43,27.43,0,0,0-4.23-.5c-1,0-2.33,0-3.07.7s.13,1.49.85,1.75a35.6,35.6,0,0,1,3.44.95c2,1-.55,2.24-1.45,2.71-4.76,2.45-10,4-14.89,6.1-.41.17-3.78,1.34-3.35,2.13.15.27.68.33,1,.36a6.77,6.77,0,0,0,1.74-.07,39.76,39.76,0,0,0,4.3-1l2-.49.77-.17c.14,0-.12,0,0,0l.17,0c.21,0,.15,0,.1,0s-.08,0-.14,0a1,1,0,0,1-.18-.11s0-.07,0-.06-.21.14-.06.05a9.05,9.05,0,0,1-1,.52c-2.51,1.06-5.14,1.86-7.59,3.06-.46.22-1.82.76-1.77,1.44s1.8.57,2.28.5c2.74-.41,5.35-1.52,8-2.29l.72-.2.28-.07c.24-.05-.09,0,.11,0a.89.89,0,0,1-.19,0c-.22,0-.22-.15-.33-.2s0,0,0,0-.12.08-.07.05a23.27,23.27,0,0,1-2.74,1.36c-1.23.57-2.47,1.13-3.68,1.76-.69.36-1.9.85-2.27,1.6s1.18.84,1.62.82a19.2,19.2,0,0,0,3.89-.8c1.32-.37,2.63-.79,4-1.17l.75-.2.27-.06c.24-.06-.09-.05.11,0s-.15,0-.22,0-.35-.23-.36-.23.06,0-.06.06a1.31,1.31,0,0,0-.19.12c-1.1.66-2.32,1.12-3.45,1.71-.35.18-2.17,1-1.27,1.55a6.56,6.56,0,0,0,3.2.41,25.79,25.79,0,0,0,4.28-.6A88.37,88.37,0,0,0,122,182.28l1-.44c.23-.11.52-.28.24-.51a1.51,1.51,0,0,0-1.18,0c-1.87.85-3.79,1.62-5.71,2.36a73.12,73.12,0,0,1-11.08,3.51,15.52,15.52,0,0,1-4.34.47,4.05,4.05,0,0,1-.8-.13l-.28-.08c-.13,0,0,0,0,0,.14-.31.87-.62,1.25-.81.75-.38,1.51-.72,2.26-1.08a5.18,5.18,0,0,0,1.57-.93c.45-.5-.3-.61-.69-.6a6.6,6.6,0,0,0-1.65.32c-1.66.46-3.28,1-4.94,1.44a20.35,20.35,0,0,1-2.09.46l-.3,0h-.18c-.21,0,.17,0,0,0,0,0,0,0,0,0a.62.62,0,0,1,.1-.2,2.65,2.65,0,0,1,.56-.44,18.08,18.08,0,0,1,1.83-1c1.49-.74,3-1.4,4.53-2.13.27-.13,2.33-1,1.6-1.43-.46-.29-1.28-.06-1.76.05-.7.16-1.39.39-2.07.6-1.69.53-3.36,1.12-5.08,1.56-.34.09-.68.17-1,.24l-.65.08h0c0-.08-.05-.06,0-.2a3.67,3.67,0,0,1,1.14-.72c.68-.34,1.39-.63,2.1-.91,1.61-.64,3.24-1.22,4.84-1.87.32-.14,2.6-.89,2.23-1.51-.24-.39-1.17-.23-1.51-.18a18.91,18.91,0,0,0-2.14.46c-1.65.41-3.31.91-5,1.15a4,4,0,0,1-.78.08s-.27,0-.09,0c0,0-.22-.05-.07,0l-.12,0s0,0,0,0-.09.06,0,0a1.49,1.49,0,0,0,.14-.12s0,0,.1-.06l.24-.13c.19-.11.39-.21.59-.31.47-.22,1-.45,1.55-.68,1.46-.61,2.93-1.17,4.4-1.74,3.26-1.26,6.55-2.49,9.71-4,1-.47,5.28-2.24,3.2-3.83-1.15-.87-2.76-.81-4.07-1.29-.39-.14-.89-.4-.68-.9,0-.12,0-.06.1-.14s0,0,0,0-.16,0,0,0l.14,0c-.25,0,.36,0,.18,0a18.73,18.73,0,0,1,4.83.53c1.47.29,2.93.62,4.38,1,.27.07.54.16.81.21a2.5,2.5,0,0,0,1.45-.22c.86-.36,1.69-.8,2.52-1.23,2.79-1.46,5.52-3,8.24-4.59q4.88-2.82,9.65-5.81a62.18,62.18,0,0,0,6.8-4.69c.4-.33,1-.76,1.09-1.3a.23.23,0,0,0-.14-.16l-.19-.13-.16-.12-.31-.25a23.89,23.89,0,0,1-1.89-1.74,36.39,36.39,0,0,1-5.65-7.75A49.69,49.69,0,0,1,137.5,133c-.18-.51-1.83-.16-1.7.22Z"/><path class="cls-3" d="M165.76,157.22a10.21,10.21,0,0,0,1.37-.67A5,5,0,0,0,169,155a1.56,1.56,0,0,0,.24-1.22c-.07-.31-.61-.33-.86-.31a1.53,1.53,0,0,0-.6.12c-.08,0-.27.13-.24.25a1.25,1.25,0,0,1,0,.51s0,.08,0,.12,0,0,0,0,0,0,0,.05l-.12.26a3.47,3.47,0,0,1-.31.44.94.94,0,0,0-.1.1s-.08.08,0,0l-.05,0-.23.21a7.47,7.47,0,0,1-1,.67l-.1.06,0,0-.23.11-.41.2a4.32,4.32,0,0,1-.45.19c-.09,0-.24.13-.24.25s.17.2.26.24a1.86,1.86,0,0,0,1.21,0Z"/><path class="cls-3" d="M147.62,228.19c1.91-10.7,1.27-21.49-3.9-31.14-2.81-5.25-6.8-13.35-8.1-19.12,0,0-.28-1,1.47-1.72,6-2.4,13.12-5.36,19.49-8.36,2.71,5.43,4,12.14,2.26,18.07-.71,2.34-1.81,4.51-1.44,7a20.75,20.75,0,0,0,1.68,4.55c1.24,3.26-.22,6.58-.75,9.82-.26,1.57-.41,3.16-.72,4.72a26,26,0,0,1-5.27,10.88A57.49,57.49,0,0,1,147.62,228.19Z"/><path class="cls-3" d="M88.19,56.88c2.61,5,6,9.92,11.27,12.28,6.44,2.86,13.26.88,19.93.48,7.74-.46,16.44,3.47,19.09,11.19,1.72,5,3.89,9.4,5.46,14.45a95.52,95.52,0,0,0,9.29,20.23c1.93,3.27,4.18,6.34,6.23,9.53h0c14.69-22.35-5-32-5-47.17s-22.57-14.24-14.9-33.08-5.26-12.93-8.33-18.85-15.27,4.6-21.47-3.34c-7-8.93-8,.82-15.11-10.9C87.85.5,71.93.23,71.93.23S52.58-2.77,48.64,13c0,0-13.59,13.14-5.26,22.13S38,45.43,46.51,52.66s.59,12.49,4.75,15.56,1.76,7,7.67,7.89,3.29,6.35,7,5.91,9.57,15.81-.07,15.81c-7.34,0-8.07-5.31-6.81-9.78a.82.82,0,0,0-1.41-.78c-3.31,4-7.07,11.34,1.72,18.71,11.91,10,21.69-4.75,21.69-4.75S91.87,86,67.71,69.45l-1.11-.83a18.83,18.83,0,0,1-5.54-4.94,32.15,32.15,0,0,1-5.24-11.85,66.64,66.64,0,0,1-1.73-13.12,99,99,0,0,1,.15-10.48,7.89,7.89,0,0,1,3.6-5.82,35.51,35.51,0,0,0,11.27-9.2C71,17.1,84.35,18.05,84.35,18.05a14.85,14.85,0,0,0,8.1,12.7v1A75.62,75.62,0,0,1,90,51.43a42.12,42.12,0,0,1-1.85,5.3Z"/><path class="cls-3" d="M98.73,129.56s21.77,7.89,36.23-10.07c0,0,2.92,15.48-16.07,18.84S98.73,129.56,98.73,129.56Z"/><path class="cls-3" d="M66.71,140.75s22.35,4.26,26.62-9.16c0,0,7.24,15.45-15,18.19a6.4,6.4,0,0,1-4.56-1.18A24.75,24.75,0,0,1,66.71,140.75Z"/><ellipse class="cls-3" cx="101.42" cy="197.91" rx="1.37" ry="2.74"/><path class="cls-4" d="M58,58.43a8.63,8.63,0,0,1-7.36,1.64,8.26,8.26,0,0,0-1.16-4,7.83,7.83,0,0,0,7.08-1.53l.91,2.58Z"/><path class="cls-4" d="M59,76.12a4.71,4.71,0,0,1,3.76,2.41h0A8.11,8.11,0,0,0,69,70.31l-2.53-1.8C65.32,76.64,59,76.12,59,76.12Z"/><path class="cls-4" d="M45.31,37.71a11.82,11.82,0,0,0-1.93-2.57,11.35,11.35,0,0,1-1.32-1.73L42,33.24a13.87,13.87,0,0,0,12.11-1.83h0C54,33.19,54,35,54,36.75h0a16.22,16.22,0,0,1-8.72,1Z"/><path class="cls-4" d="M90,30.91A26.89,26.89,0,0,0,112.5,36c1.93-.42,3.8-.61,5.48.56a26.82,26.82,0,0,1,3,2.82,11.43,11.43,0,0,0,9.47,3c.65-.06.49-.44.19-.78a2.69,2.69,0,0,0-2-.46c-3.49.37-5-1.77-7.32-3.89a10.82,10.82,0,0,0-8.09-2.88c-2.47.13-4.8,1-7.3,1.08a19.75,19.75,0,0,1-7.25-1.27,23,23,0,0,1-6.57-3.61c-.57-.46-3.3-.62-2.14.32Z"/><path class="cls-4" d="M89.17,41.17c4.46,5.24,11.91,7.93,18.66,7.49,2.47-.16,4.78-1,7.23-1.28.79-.07,1-.11,1.52.52,1.17,1.51,1.31,3.57,2.61,5.08,3.09,3.61,8.61,4.5,13,5.07,1.67.21,1.79-.92.12-1.13-3.73-.48-8.46-1.25-10.86-4.53-1-1.42-1.21-3.29-2.27-4.66-1.38-1.8-4.18-1.7-6.19-1.38-2.51.41-4.87,1.22-7.44,1.19a17.21,17.21,0,0,1-7-1.6,21.74,21.74,0,0,1-5-3.17c-.44-.37-.86-.75-1.26-1.16-.11-.1-.69-.74-.44-.46a2.2,2.2,0,0,0-1.71-.57c-.16,0-1.43.15-1.06.59Z"/><path class="cls-4" d="M87.23,51.51a23.72,23.72,0,0,0,16,8.57c3.85.3,8-1.64,11.2,1.21,2.54,2.26,4.75,3.8,8.21,4.38,4.29.72,9,.71,12.92,2.82a11.21,11.21,0,0,1,5.49,7.81c.6,3.12,1.36,6.72,3.24,9.34,1.57,2.2,4.33,2.8,5.59,5.36,1.16,2.35,1.27,5.14,1.34,7.71a19.13,19.13,0,0,0,1.5,7.58,11.12,11.12,0,0,0,4.55,5.22c.65.34,3.36,0,2.05-.7s-3-2.94-3.84-4.68c-2-4.43-.85-9.32-2.28-13.87-.93-2.93-2.87-4-5.15-5.72-2.59-2-3.39-6.42-4-9.41a13.64,13.64,0,0,0-3.87-7.57c-2.66-2.46-6.4-3.38-9.87-4-4.06-.71-8.59-.45-11.86-3.31-2.2-1.93-3.9-3.41-7-3.69-2.67-.24-5.27.56-7.93.38a17.21,17.21,0,0,1-7.41-2.48A23.17,23.17,0,0,1,90,51.35c-.55-.67-3.19-.36-2.76.16Z"/><path class="cls-3" d="M66.42,68.52a16.66,16.66,0,0,0,5,2,6.44,6.44,0,0,0,2.93,0,15.51,15.51,0,0,0,4.1-1.75A21.09,21.09,0,0,0,84.55,63a31.11,31.11,0,0,0,3.56-6.31l.7,1.3a40,40,0,0,0,3.64,5.54C82.46,75,73.07,72.43,69,70.31Z"/><path class="cls-4" d="M147.66,228.15l-.54.48a2,2,0,0,1-.43.25l-.16.09-.38.18-.42.2-.46.2-.51.19-.55.2-.58.18-.62.17-.65.14c-.22,0-.45.09-.68.12s-.47.07-.7.09-.49,0-.73.05a6.26,6.26,0,0,1-.75,0c-.25,0-.51,0-.76,0s-.52,0-.78-.09-.53-.09-.79-.15-.53-.13-.8-.21-.54-.17-.8-.27-.54-.22-.81-.35-.54-.27-.81-.43-.54-.33-.8-.51-.54-.38-.8-.59-.54-.46-.79-.7-.53-.51-.78-.79-.52-.58-.77-.89-.51-.66-.75-1-.5-.74-.73-1.12-.48-.82-.71-1.24l-.31-.6c-7.6-15-26.07,38.22-43.16,31-4.92-2.08-7.14-4.62-7.72-7.12-.74,3.32.55,6.67,7.28,9.77,18.63,8.56,35.88-44.85,43.47-29.81,6.55,13,16.92,7.52,19.59,6.05Z"/><path class="cls-3" d="M147.59,228.36s-12.49,8.41-20.08-6.63-26.3,38.6-43.39,31.34c-15.73-6.68-3.7-18.33,1.35-18.23a.75.75,0,0,1,.6,1.15c-1.43,2.36-4.83,8.82.54,8.82,6.57,0-3.94-25.56,7.45-25s-1-20,9.35-12.56,19.28-9.53,24-1.63,11.59-3.37,20.54,3.63h0a52.44,52.44,0,0,1-.31,19.09Z"/><path class="cls-5" d="M21,315.09c4.23,1.49,8.47,4.54,12.09,7.29C44.3,330.91,53.46,342,61.16,353.7a223.3,223.3,0,0,1,17.89,33.63c.44,1,4.36-.31,4-1.08-8-18.3-17.85-36.06-31.14-51.08-6.69-7.56-14.36-14.71-23.26-19.61a29.46,29.46,0,0,0-4.36-2.07c-.93-.33-4.52,1.17-3.3,1.6Z"/><path class="cls-6" d="M150.39,382.24c6.27-32.06,21.1-62.73,47.86-82.52,1.7-1.25-2.29-1-3.13-.34-27.12,20.05-42.34,50.94-48.7,83.48-.23,1.17,3.75.52,4-.62Z"/><path class="cls-7" d="M137.23,309.61c4-14.16,9.72-27.81,18-40,1.1-1.63-3.05-1.36-3.86-.17-8.38,12.4-14.2,26.31-18.25,40.68-.45,1.57,3.72,1,4.13-.48Z"/><path class="cls-4" d="M175,438.78c1.63-7.08,9.22-9.07,7.25-21.38-2.4-15-7.5,4.5-16.08-8.36s-15.12,14.36-23,1.76-11,7.5-24.66-8.4-8,23.44-26.46,8.15-12.36,6.11-22.91,1.15-21,7.2-11.4,15.6c4.77,4.18,6.72,8.42,7.47,11.64a2.91,2.91,0,0,1-.32,2.16h0a2.83,2.83,0,0,0,2.2,4.28c12.86,1,52.2,3.36,104.88-.29a2.86,2.86,0,0,0,2.66-2.64C174.75,441,174.89,439.35,175,438.78Z"/><path class="cls-3" d="M70.72,31c.28,4.17,0,8.36.19,12.53.07,1.63.44,3.32,2.4,3.14a.59.59,0,0,0,.07-1.16c-1.78-.27-1.17-6.52-1.24-7.77-.13-2.28-.41-4.53-.69-6.8a.37.37,0,0,0-.73.06Z"/><path class="cls-3" d="M59.14,39.44c1-1.12,1.8-2.31,3.31-2.78A4.81,4.81,0,0,1,67,37.81c.62.52,1.45-.44.82-1-3-2.43-8.12-1.9-9.32,2.26-.11.38.42.58.65.32Z"/><ellipse class="cls-3" cx="62.41" cy="37.77" rx="1.68" ry="2.09" transform="translate(-2.62 4.72) rotate(-4.24)"/><path class="cls-3" d="M69.43,55.71a12.28,12.28,0,0,0,9-3c.48-.43-.15-1.22-.69-.89a22.61,22.61,0,0,1-4.18,2.22,37.86,37.86,0,0,1-4.18,1c-.39.09-.25.58.08.63Z"/><path class="cls-3" d="M77.36,37.24c1-1.12,1.8-2.31,3.31-2.78a4.84,4.84,0,0,1,4.54,1.15c.62.52,1.45-.44.82-1-3-2.42-8.12-1.9-9.32,2.27-.11.37.42.58.65.31Z"/><ellipse class="cls-3" cx="80.63" cy="35.58" rx="1.68" ry="2.09" transform="translate(-2.41 6.06) rotate(-4.24)"/><path class="cls-4" d="M103.92,296.59c7.32-7.5,14.39-15.71,19.84-24.68a34,34,0,0,0,4.15-9c.13-.53-1.66-.27-1.79.27-1.56,6.15-5.65,11.69-9.41,16.67s-7.66,9.53-11.8,14c-.87.94-2.27,2.58-2.1,3.47.13.64.76-.35,1.11-.71Z"/><path class="cls-3" d="M73,432.76a20.36,20.36,0,0,1-3.9-7.56c-.24-1.08-.34-2.91.84-3.24s2.47-.29,3.67-.67a21.25,21.25,0,0,0,3.89-1.68c2.15-1.19,4.12-2.7,6.3-3.85a3.59,3.59,0,0,1,4.66.62c1.38,1.27,2.16,3.15,4.08,3.75a6.65,6.65,0,0,0,4.9-.79,24.14,24.14,0,0,0,3.39-2.48,15.61,15.61,0,0,1,1.58-1.14,6,6,0,0,1,.71-.38s.56-.2.21-.08c.16-.05.15,0,.16,0,1.88-.12,3.63,1.28,4.92,2.52,1.59,1.53,3,3,5.24,3.6,3.89,1,7.8-.92,11-3,1.45-1,2.83-2.05,4.32-2.95a11.46,11.46,0,0,1,1.52-.77c.25-.11-.19,0,.29-.06-.26,0,.12,0,.31.08,1.54.53,2.27,2.11,2.93,3.48a7,7,0,0,0,3.65,3.79c3.46,1.28,7.46-.69,10.47-2.27a35.71,35.71,0,0,1,4.31-2.12s.64-.17.39-.12a.9.9,0,0,1,.39,0,2.27,2.27,0,0,1,1.36.73c1.12,1.19,1.16,3,2.38,4.15a5.82,5.82,0,0,0,4.23,1.31c3.42-.1,6.68-1.71,9.71-2.49a3.16,3.16,0,0,1,1.34-.19c-.13,0,.24,0,.37.08a1.6,1.6,0,0,1,.62.39c1,1,.94,3.13.73,4.41-.39,2.42-2.36,4.17-4.28,5.5a40,40,0,0,1-10.17,4.69c-10.05,3.35-20.82,4.79-31.37,5.27-12,.55-24.29-.22-35.94-3.36a77.72,77.72,0,0,1-7.74-2.53,3.18,3.18,0,0,0-2.4.39c-.39.21-1.11.79-.37,1.07,11.49,4.46,24,6,36.28,6.18A140.3,140.3,0,0,0,153.7,439a75.1,75.1,0,0,0,13.59-4.63c3-1.4,6.17-3.15,8.34-5.73,1.7-2,2.73-5.44,1.34-7.9-1.62-2.87-6.32-1.13-8.66-.36a41.69,41.69,0,0,1-4.47,1.37,3.89,3.89,0,0,1-3.53-.67C159,420,159,418,157.75,416.79a4.78,4.78,0,0,0-4.26-.94c-3.62.58-6.62,3-9.93,4.31a3.64,3.64,0,0,1-3.48.11c-1.92-1-2.45-3.08-3.5-4.77-4.59-7.32-13,2.69-17.91,4.28a4.29,4.29,0,0,1-1.62.18,5.66,5.66,0,0,1-2.51-.89c-2.11-1.31-3.46-3.48-5.71-4.64-3.57-1.83-7.49-.33-10.43,2-.6.47-1.18,1-1.78,1.43a11.47,11.47,0,0,1-1.38.93c-.11.05.21-.12.29-.06h0c-.16-.06-.32-.09-.48-.16a5.41,5.41,0,0,1-1.77-1.6c-1.55-2-3.22-3.49-5.88-3.47a13.83,13.83,0,0,0-6.88,2.37,51,51,0,0,1-6.65,3.9c-2.24.93-4.81.49-6.84,2-3.17,2.38-.42,7.17,1.13,9.7A30.33,30.33,0,0,0,69.82,434c.57.76,3.86-.37,3.21-1.23Z"/><path class="cls-4" d="M108.27,411.74q-3.27-10-6.68-20-4-11.68-8.19-23.31-4.65-12.93-9.57-25.75Q78.57,328.92,73,315.31A64.17,64.17,0,0,1,70.54,309a33.16,33.16,0,0,1-1.19-6.25,40.14,40.14,0,0,1,.78-12.65c.23-1,.58-2.59.89-3.58.13-.42-1.52-.94-1.68-.42-2.45,7.88-2.71,17.71.39,25.43,3.68,9.13,7.44,18.22,11,27.4q5,13,9.8,26.12,4.31,11.85,8.4,23.78,3.51,10.21,6.88,20.5l.75,2.31c.16.48,1.88.6,1.72.1Z"/><path class="cls-3" d="M110.87,172.21S94.5,155.91,84,122.52A197.45,197.45,0,0,1,124.55,102l14.57,36.91s4,7.18,9.18,11.73C148.3,150.65,140.59,158.52,110.87,172.21Z"/><path class="cls-4" d="M103.53,154.38l-2.25-4.19,4.49-10.86a24.22,24.22,0,0,0,1.59-4.89,4.83,4.83,0,0,0-.52-3.11,3.4,3.4,0,0,0-2.13-1.82,3.79,3.79,0,0,0-2.78.42,4.74,4.74,0,0,0-2,2,14.15,14.15,0,0,0-1.16,3.83l-5.31-1a15.67,15.67,0,0,1,1.87-5.87A11,11,0,0,1,99.74,125a9.85,9.85,0,0,1,7.1-1.2A7.86,7.86,0,0,1,112,128l0,.07a9.19,9.19,0,0,1,1.14,3.93,11.25,11.25,0,0,1-.49,3.8,48.06,48.06,0,0,1-2,5l-2.3,5.12,10.48-5.62,2.45,4.58Z"/><path class="cls-4" d="M139.14,131.26a11,11,0,0,1-5.83,7.7,10.83,10.83,0,0,1-9.59.6A15,15,0,0,1,116,132.3l0-.07a15.18,15.18,0,0,1-1.77-10.49,11.52,11.52,0,0,1,15.41-8.28,15.08,15.08,0,0,1,7.7,7.25l0,.06A15.18,15.18,0,0,1,139.14,131.26ZM125.83,134a5,5,0,0,0,5,.12,5,5,0,0,0,2.65-4.17,11,11,0,0,0-1.5-6.23l0-.07a10.85,10.85,0,0,0-4.42-4.69,5.07,5.07,0,0,0-5-.14A5,5,0,0,0,119.9,123a10.84,10.84,0,0,0,1.48,6.24l0,.07A10.9,10.9,0,0,0,125.83,134Z"/><path class="cls-4" d="M121.09,159.16a2.53,2.53,0,0,1-1.77.31,1.93,1.93,0,0,1-1.33-1.05l0,0a1.92,1.92,0,0,1-.11-1.81,3.4,3.4,0,0,1,1.53-1.46,5.51,5.51,0,0,1,1.63-.55l0-.1c-.4-.75-1-.88-1.91-.42a5.69,5.69,0,0,0-1.51,1.24l-1.15-1.09a6.54,6.54,0,0,1,2.11-1.76A3.19,3.19,0,0,1,121,152a3,3,0,0,1,1.7,1.6l1.9,3.55-1.67.9-.36-.66A2.65,2.65,0,0,1,121.09,159.16Zm-.12-1.48a1.67,1.67,0,0,0,.82-.82,1.09,1.09,0,0,0,0-1l-.17-.3a2.89,2.89,0,0,0-1.23.36,1.73,1.73,0,0,0-.76.69.79.79,0,0,0,0,.8v0a.71.71,0,0,0,.55.4A1.18,1.18,0,0,0,121,157.68Z"/><path class="cls-4" d="M125.94,156.42l-3.28-6.12,1.73-.93.47.87a2.56,2.56,0,0,1,1.26-1.94,2.23,2.23,0,0,1,1.86-.21,2.68,2.68,0,0,1,1.44,1.37l2.12,4-1.74.93L128,150.94a1.57,1.57,0,0,0-.77-.78,1.08,1.08,0,0,0-.95.1,1.13,1.13,0,0,0-.62.74,1.53,1.53,0,0,0,.2,1.08l1.83,3.41ZM123.76,149l-1.07.21a3.7,3.7,0,0,1-.1-1.47,1.2,1.2,0,0,1,.67-.86,3,3,0,0,1,1.08-.29,3.53,3.53,0,0,0,.87-.18.6.6,0,0,0,.31-.34,1.84,1.84,0,0,0,0-.57l1.08-.21a3.87,3.87,0,0,1,.09,1.47,1.18,1.18,0,0,1-.67.86,3.12,3.12,0,0,1-1.08.3,3.1,3.1,0,0,0-.87.18.61.61,0,0,0-.31.33A1.89,1.89,0,0,0,123.76,149Z"/><path class="cls-4" d="M137.88,149a4,4,0,0,1-4.72,2.54,3.46,3.46,0,0,1-2.15-1.74v0a3.49,3.49,0,0,1-.26-2.77,3.73,3.73,0,0,1,1.88-2.2,3.68,3.68,0,0,1,2.85-.34,3.44,3.44,0,0,1,2.14,1.74v0A3.44,3.44,0,0,1,137.88,149Zm-2.65.69a1.67,1.67,0,0,0,.89-1.1,1.93,1.93,0,0,0-.2-1.42v0a1.92,1.92,0,0,0-1.09-.95,1.83,1.83,0,0,0-2.32,1.22,1.94,1.94,0,0,0,.2,1.42v0a2,2,0,0,0,1.09.95A1.72,1.72,0,0,0,135.23,149.7Z"/><path class="cls-4" d="M142.6,147.64a4.65,4.65,0,0,1-3.12.48l.13-1.54a3.74,3.74,0,0,0,2.32-.3c.49-.26.65-.54.49-.85v0a.39.39,0,0,0-.08-.1.19.19,0,0,0-.12-.07l-.14,0h-.37l-.21,0-.23,0-.25.06-.25,0a7.3,7.3,0,0,1-.79.12,3.76,3.76,0,0,1-.74,0,1.54,1.54,0,0,1-.73-.29,2.06,2.06,0,0,1-.55-.67v0a1.94,1.94,0,0,1-.12-1.76,2.75,2.75,0,0,1,1.32-1.38,4.5,4.5,0,0,1,2.66-.51l0,1.55a3.86,3.86,0,0,0-2,.32.84.84,0,0,0-.41.37.42.42,0,0,0,0,.39l0,0c.11.21.57.24,1.4.1l.23,0a7.69,7.69,0,0,1,.81-.1,3.76,3.76,0,0,1,.74,0,1.55,1.55,0,0,1,.74.28,1.71,1.71,0,0,1,.53.62v0a2,2,0,0,1,.15,1.83A3,3,0,0,1,142.6,147.64Z"/><path class="cls-4" d="M149.07,150.17c-.31,2-26.58,17.68-29.1,17.9,0,0-11.18-3.11-11.94-1.15s4.64,1.13,5.25,3.48c.17.65-.47,1.25-2.19,1.52a3.5,3.5,0,0,0,3.24,1.42c1.9-.4,33-16.91,34-19.25A8.3,8.3,0,0,0,149.07,150.17Z"/><rect class="cls-2" x="47.59" y="477.34" width="141.05" height="10" rx="5"/></svg>