<svg id="Layer_6" data-name="Layer 6" xmlns="http://www.w3.org/2000/svg" viewBox="0 0 135 88.16"><defs><style>.cls-1{fill:#62678f;}.cls-2{fill:#969ab4;}</style></defs><path class="cls-1" d="M34.64,47.47H6.05a6.06,6.06,0,0,0-6,6.05V82.11a6.06,6.06,0,0,0,6.05,6H34.64a6.06,6.06,0,0,0,6-6V53.52A6.06,6.06,0,0,0,34.64,47.47ZM30.79,69.18H14.49l6.2,5.57a1.51,1.51,0,0,1-1,2.64,1.51,1.51,0,0,1-1-.39L8.39,67.77l10.36-9.15a1.51,1.51,0,0,1,2,2.27l-6,5.26h16a1.52,1.52,0,0,1,0,3Z"/><path class="cls-1" d="M100.36,88.16H129a6.06,6.06,0,0,0,6.05-6V53.52A6.06,6.06,0,0,0,129,47.47H100.36a6.06,6.06,0,0,0-6,6.05V82.11A6.06,6.06,0,0,0,100.36,88.16Zm3.85-21.71h16.3l-6.2-5.57a1.51,1.51,0,0,1,1-2.64,1.51,1.51,0,0,1,1,.39l10.28,9.23L116.25,77a1.51,1.51,0,0,1-2-2.27l6-5.26h-16a1.52,1.52,0,0,1,0-3Z"/><path class="cls-2" d="M47.15,53.32V81.91a6.07,6.07,0,0,0,6.06,6H81.79a6.07,6.07,0,0,0,6.06-6V53.32a6.07,6.07,0,0,0-6.06-6H53.21A6.07,6.07,0,0,0,47.15,53.32Zm21.71,3.85v16.3l5.57-6.2a1.52,1.52,0,0,1,2.64,1,1.48,1.48,0,0,1-.38,1L67.45,79.57,58.31,69.21a1.51,1.51,0,0,1,2.26-2l5.27,6v-16a1.51,1.51,0,0,1,3,0Z"/><path class="cls-2" d="M88,34.64V6.05A6.07,6.07,0,0,0,82,0H53.4a6.06,6.06,0,0,0-6,6.05V34.64a6.06,6.06,0,0,0,6,6H82A6.07,6.07,0,0,0,88,34.64ZM66.33,30.79V14.49l-5.57,6.2a1.51,1.51,0,0,1-2.64-1,1.51,1.51,0,0,1,.39-1L67.74,8.39l9.15,10.36a1.51,1.51,0,0,1-2.27,2l-5.27-6v16a1.51,1.51,0,1,1-3,0Z"/></svg>