<svg id="Layer_6" data-name="Layer 6" xmlns="http://www.w3.org/2000/svg" viewBox="0 0 171.89 68"><defs><style>.cls-1{fill:#62678f;}</style></defs><path class="cls-1" d="M34,0A34,34,0,1,0,68,34,34,34,0,0,0,34,0ZM50.35,35.16a1.75,1.75,0,0,1-1.75,1.76h-21l8.8,8.37a1.75,1.75,0,0,1,0,2.51l-1.62,1.62a1.76,1.76,0,0,1-2.48,0L18.17,35.24a1.74,1.74,0,0,1,0-2.48L32.35,18.58a1.75,1.75,0,0,1,2.47,0l1.62,1.62a1.76,1.76,0,0,1,0,2.51l-8.79,8.37h21a1.75,1.75,0,0,1,1.75,1.75Z"/><path class="cls-1" d="M137.89,0a34,34,0,1,0,34,34A34,34,0,0,0,137.89,0Zm15.83,35.24L139.54,49.42a1.75,1.75,0,0,1-2.47,0l-1.62-1.62a1.75,1.75,0,0,1,0-2.51l8.78-8.37h-21a1.75,1.75,0,0,1-1.75-1.75V32.84a1.75,1.75,0,0,1,1.75-1.76h21l-8.79-8.37a1.75,1.75,0,0,1,0-2.51l1.62-1.62a1.75,1.75,0,0,1,2.47,0l14.19,14.18A1.74,1.74,0,0,1,153.72,35.24Z"/></svg>