<svg id="Layer_6" data-name="Layer 6" xmlns="http://www.w3.org/2000/svg" viewBox="0 0 106.68 112"><defs><style>.cls-1{fill:#575d88;}.cls-2{fill:#62678f;}</style></defs><path class="cls-1" d="M90.37,51.87,43.77,87.32l1.08,1.42c3.37,4.43,5.61,7.47,9,11.84a36.14,36.14,0,0,0,4.69,5.11A24.37,24.37,0,0,0,82,111c7.28-2,13-6.71,18-12.06,8.06-8.5,9.06-22.15,1.38-32.49-3.67-4.94-6.35-8.38-10.08-13.27Z"/><path class="cls-2" d="M90.37,51.87l1,1.29c3.73,4.89,6.41,8.33,10.08,13.27,7.68,10.34,6.68,24-1.38,32.49C95,104.27,89.31,109,82,111a24.37,24.37,0,0,1-23.44-5.29,36.14,36.14,0,0,1-4.69-5.11c-3.44-4.37-5.68-7.41-9-11.84l-1.08-1.42Z"/><path class="cls-2" d="M66.2,65.77,88,49.21c-4.72-6.2-9-12.64-14.1-18.33C67.22,23.46,58.5,21.44,49,24c-3.25.85-6.25,2.65-9.5,4.07-.31-.29-.87-.86-1.46-1.38-2.78-2.47-5.85-4.2-9.73-4.25a14.92,14.92,0,0,0-9.06,3.16c-4.37,3.12-7.5,2.93-11.41-.8a5.29,5.29,0,0,1-1.41-3.12,10.33,10.33,0,0,1,.65-4,20.45,20.45,0,0,1,5.83-8.27c1.6-1.51,3.4-3,5-4.44C16.62,3.24,15.28,1.71,14,0c-1.41,1.24-2.73,2.37-4,3.55-4,3.64-7.47,7.67-9.19,13C-2.55,26.74,5.44,33.07,12.66,33.84c3.92.41,7.3-1.08,10.36-3.44,3.54-2.74,8.41-2.53,11.47,1.9-.84.81-1.66,1.62-2.5,2.41A25.54,25.54,0,0,0,29.5,68.54c3.65,4.88,7.38,9.71,11.07,14.57l1,1.36L63.08,68.14l-2.89-3.87a8.78,8.78,0,0,1-3.55.76,8.56,8.56,0,0,1-6.82-3.34Q46,56.76,42.3,51.79A8.91,8.91,0,0,1,40.64,45a8.29,8.29,0,0,1,2-4.21l-2-2.65a2,2,0,0,1,3.14-2.34l2,2.74a8.59,8.59,0,0,1,10.45,3c.73,1.07,1.54,2.11,2.41,3.22l1.21,1.56,1.22,1.61C62,49,62.87,50.1,63.7,51.23a8.41,8.41,0,0,1-.37,10.69Z"/><path class="cls-2" d="M56.81,48.62c-1.25-1.65-2.57-3.24-3.73-4.95a4.75,4.75,0,0,0-6.74-1,4.8,4.8,0,0,0-.92,6.78c2.49,3.29,5,6.59,7.51,9.86a4.71,4.71,0,0,0,6.62.83,4.59,4.59,0,0,0,1-6.57C59.33,51.9,58.06,50.27,56.81,48.62Z"/></svg>