<svg xmlns="http://www.w3.org/2000/svg" xmlns:xlink="http://www.w3.org/1999/xlink" viewBox="0 0 100.73 83.04"><defs><style>.cls-1{fill:none;}.cls-2{isolation:isolate;}.cls-3{fill:#575d88;}.cls-4{fill:#8185a5;}.cls-5{fill:#424879;}.cls-6{clip-path:url(#clip-path);}.cls-7{fill:#2d346a;opacity:0.6;mix-blend-mode:multiply;}.cls-8{fill:#f2b638;}</style><clipPath id="clip-path"><path class="cls-1" d="M99.85,38.57,48.28,26a1.12,1.12,0,0,0-.82.11L.6,51.52a1.15,1.15,0,0,0,.26,2.12L22.57,59.3h0l4,1.05,2.16,16.57a2.77,2.77,0,0,0,2.16,2.35c5.86,1.24,24.51,3.89,46.87-6.21l.06,0h0l.43-.2a2,2,0,0,0,1.17-2.12L77.2,53.65l14.23-8L93.8,63.73a3.62,3.62,0,0,0-2,3.71l.7,5.42a1.83,1.83,0,0,0,2,1.58L98.19,74a1.82,1.82,0,0,0,1.58-2l-.71-5.43a3.65,3.65,0,0,0-2.35-2.94,3.53,3.53,0,0,0-.64-.16l-2.48-19,6.56-3.7A1.15,1.15,0,0,0,99.85,38.57Z"/></clipPath></defs><g class="cls-2"><g id="Layer_6" data-name="Layer 6"><path class="cls-3" d="M.6,51.52,47.46,26.08a1.12,1.12,0,0,1,.82-.11l51.57,12.6a1.15,1.15,0,0,1,.3,2.12L77,53.77l-50.4,6.58L.86,53.64A1.15,1.15,0,0,1,.6,51.52Z"/><path class="cls-4" d="M25.74,53.91l3,23a2.77,2.77,0,0,0,2.16,2.35c5.86,1.24,24.51,3.89,46.87-6.21a2.76,2.76,0,0,0,1.59-2.88l-3-23a2.76,2.76,0,0,0-2-2.32c-5.7-1.53-24.43-5.1-47.11,6.26A2.76,2.76,0,0,0,25.74,53.91Z"/><path class="cls-5" d="M79.43,70.71,76.35,47.13a2.8,2.8,0,0,0-2-2.35,62.11,62.11,0,0,0-25.23-.84A61,61,0,0,1,69.65,45.2a3.58,3.58,0,0,1,2.68,3L75.69,74s1.86-.79,2.14-.93l.43-.2A2,2,0,0,0,79.43,70.71Z"/><path class="cls-5" d="M96.71,63.55a3.53,3.53,0,0,0-.64-.16L93.26,41.85a1.15,1.15,0,1,0-2.28.3L93.8,63.73a3.62,3.62,0,0,0-2,3.71l.7,5.42a1.83,1.83,0,0,0,2,1.58L98.19,74a1.82,1.82,0,0,0,1.58-2l-.71-5.43A3.65,3.65,0,0,0,96.71,63.55Z"/><g class="cls-6"><path class="cls-7" d="M33.48,79.34l.14.9a2.75,2.75,0,0,0,2.19,2.32c.77.15,1.75.32,2.94.48,0,0,3.94-1.84,5.87-2.84a80.38,80.38,0,0,0,9.91-6.07A83.18,83.18,0,0,0,65.08,65.2,83.78,83.78,0,0,0,74.6,53.63a87.21,87.21,0,0,0,7.78-13.94c.84-1.87,1.6-3.78,2.31-5.71a2,2,0,0,0-.6-2.24l-2.44-2a2,2,0,0,0-1.9-.38l-3.81,1.19-.65.21A2,2,0,0,0,74,32a93.51,93.51,0,0,1-8.15,17.83c-1.3,2.19-2.71,4.31-4.21,6.37A78.64,78.64,0,0,1,50.13,68.6c-1,.9-2.1,1.75-3.17,2.59-1.78,1.34-3.6,2.61-5.49,3.8-1,.61-1.95,1.19-2.95,1.76-.49.28-1,.56-1.48.83l-.7.37-.21.11-.17.09-.78.38c-.47.23-.93.46-1.41.68l-.28.13Z"/></g><path class="cls-8" d="M83.87,1.17l1.48,6.56a1.51,1.51,0,0,0,.92,1.07l6.15,2.37a1.49,1.49,0,0,1,.29,2.64L87,17.59a1.52,1.52,0,0,0-.67,1.17l-.38,7a1.5,1.5,0,0,1-2.48,1.05l-4.88-4.3a1.51,1.51,0,0,0-1.41-.31L70.9,24a1.49,1.49,0,0,1-1.82-2l2.58-6.48a1.51,1.51,0,0,0-.12-1.34L67.9,8.35a1.49,1.49,0,0,1,1.37-2.28l6.57.43a1.51,1.51,0,0,0,1.29-.58L81.23.58A1.49,1.49,0,0,1,83.87,1.17Z"/><path class="cls-8" d="M28.63,76l.11.9a2.78,2.78,0,0,0,2.17,2.35c.76.16,1.74.35,2.92.53,0,0,4-1.78,5.92-2.75a80.31,80.31,0,0,0,10-5.91,84,84,0,0,0,10.69-8.76A84.51,84.51,0,0,0,70.14,51a87.59,87.59,0,0,0,8-13.82c.87-1.86,1.66-3.76,2.4-5.68A2,2,0,0,0,80,29.22c-.75-.64-1.73-1.49-2.41-2.09a2,2,0,0,0-1.89-.4l-3.83,1.13-.66.2a2,2,0,0,0-1.32,1.25A93.24,93.24,0,0,1,61.44,47c-1.33,2.17-2.77,4.26-4.3,6.3a78.74,78.74,0,0,1-11.7,12.23c-1,.88-2.12,1.71-3.21,2.53-1.8,1.32-3.64,2.56-5.55,3.72-1,.59-2,1.16-3,1.72l-1.5.8-.7.36-.22.11-.17.08-.78.38-1.42.65-.29.13Z"/></g></g></svg>