<svg xmlns="http://www.w3.org/2000/svg" xmlns:xlink="http://www.w3.org/1999/xlink" viewBox="0 0 91.56 101.98"><defs><style>.cls-1{fill:none;}.cls-2{isolation:isolate;}.cls-3{fill:#575d88;}.cls-4{fill:#c0c2d2;}.cls-5{clip-path:url(#clip-path);}.cls-6{fill:#2d346a;opacity:0.6;mix-blend-mode:multiply;}.cls-7{fill:#f2b638;}</style><clipPath id="clip-path"><circle class="cls-1" cx="40.35" cy="61.63" r="40.35"/></clipPath></defs><g class="cls-2"><g id="Layer_6" data-name="Layer 6"><circle class="cls-3" cx="40.35" cy="61.63" r="40.35"/><path class="cls-4" d="M78.85,73.73a6.29,6.29,0,0,0-7.39,2.15A7.88,7.88,0,0,0,70.83,77l-.25.57a5.34,5.34,0,0,1-4.9,3.2H61.52a1.92,1.92,0,0,1-1.92-1.74l-.17-1.66a6.74,6.74,0,0,0-3.06-5,2.33,2.33,0,0,1-1.11-1.93V68.69a3.28,3.28,0,0,1,1.11-2.45L63.48,60a7,7,0,0,0,2.06-7.27,7.15,7.15,0,0,0-6-5l-.72-.09a3.49,3.49,0,0,1-2.21-1.17,2,2,0,0,1-.24-2.28l1.49-2.54c1.34-2.29-.14-3.35,1.38-5.56,1.09-1.59,5-4.46,6.15-6A40.39,40.39,0,0,1,78.85,73.73Z"/><path class="cls-4" d="M.08,59.12A40.31,40.31,0,0,1,20.37,26.57l4,2.79,2.3,1.73a12.05,12.05,0,0,0,1.21.8,12.62,12.62,0,0,1,4,3.72l2.74,4a4.28,4.28,0,0,1-.13,5.07l-1.27,1.65a2.94,2.94,0,0,1-2.68,1.12l-1.44-.19A5.21,5.21,0,0,0,24,49.76,3,3,0,0,1,21,51.17l-3.29-.42a5.39,5.39,0,0,0-5.16,2.33,4.77,4.77,0,0,0-.08,5.24l2.2,3.47a4.44,4.44,0,0,0,5.85,1.54l2.26-1.22a4.19,4.19,0,0,1,4.1.11l4.3,2.57a1,1,0,0,0,.57.15,6.08,6.08,0,0,1,5,2.64l2.1,2.93a6.9,6.9,0,0,0,.47.6l2.75,3.23a1.39,1.39,0,0,1,.31,1.14,1.43,1.43,0,0,1-.57.92l-4.12,3.17a6.7,6.7,0,0,0-2.33,3.35L34,87.42a2.93,2.93,0,0,1-.52,1L32.12,90a7.73,7.73,0,0,0-1.79,4.21A2.15,2.15,0,0,1,29,96a1.08,1.08,0,0,1-1.49-.85l-1.27-7.6A5.86,5.86,0,0,0,25.15,85l-4.66-6.1A5.53,5.53,0,0,1,19.57,77L18,71.47A5.84,5.84,0,0,0,14,67.41l-.33-.09a4.33,4.33,0,0,1-1.82-1L8.94,63.6a6.45,6.45,0,0,1-1.15-1.45,6.52,6.52,0,0,0-3.47-2.83A11,11,0,0,0,.08,59.12Z"/><g class="cls-5"><path class="cls-6" d="M10.46,90.44a41.26,41.26,0,0,1-3-4.62h0l1.43-.08,1.52-.17c1.24-.15,2.49-.34,3.73-.55l.8-.15c.73-.15,1.44-.3,2.16-.47q2.54-.59,5-1.33l.46-.14.91-.3c.93-.31,1.86-.64,2.78-1s1.95-.76,2.92-1.16l1.43-.62.79-.36.18-.08.21-.1.71-.35,1.52-.77c1-.53,2-1.08,3-1.65,1.93-1.12,3.8-2.32,5.63-3.6,1.11-.79,2.21-1.61,3.27-2.46a79,79,0,0,0,12-12c1.57-2,3.06-4.07,4.45-6.21a94.18,94.18,0,0,0,8.83-17.54,2,2,0,0,1,1.35-1.22l.66-.18,3.86-1.05a2,2,0,0,1,1.88.44c.67.62,1.63,1.49,2.37,2.15a2,2,0,0,1,.51,2.26Q80.71,40,79.35,42.78A87.57,87.57,0,0,1,71,56.43a83.67,83.67,0,0,1-10,11.22,82.32,82.32,0,0,1-10.89,8.53A79.61,79.61,0,0,1,40,81.88a92.07,92.07,0,0,1-10.66,4.31,99.57,99.57,0,0,1-9.74,2.69c-2.74.59-5.5,1.1-8.28,1.45l-.89.11"/></g><path class="cls-7" d="M82,1.17l1.49,6.57a1.49,1.49,0,0,0,.92,1.07l6.16,2.37a1.5,1.5,0,0,1,.28,2.65l-5.76,3.79a1.46,1.46,0,0,0-.67,1.16l-.39,7a1.49,1.49,0,0,1-2.48,1l-4.88-4.3a1.53,1.53,0,0,0-1.42-.31L69,24a1.49,1.49,0,0,1-1.81-2l2.57-6.49a1.48,1.48,0,0,0-.12-1.34L66,8.37a1.5,1.5,0,0,1,1.37-2.29L74,6.51a1.5,1.5,0,0,0,1.28-.58L79.39.59A1.49,1.49,0,0,1,82,1.17Z"/><path class="cls-7" d="M8.47,86.37a40.19,40.19,0,0,1-3.06-4.55h0c.47,0,1-.07,1.42-.12l1.51-.2c1.25-.18,2.49-.4,3.72-.64l.8-.16c.72-.16,1.44-.33,2.15-.52q2.52-.65,5-1.44l.46-.15.91-.32q1.38-.49,2.76-1T27,76l1.42-.65.79-.37.17-.09.22-.1.7-.36,1.5-.81c1-.55,2-1.13,3-1.72q2.85-1.74,5.55-3.72c1.09-.82,2.17-1.66,3.22-2.54A78.47,78.47,0,0,0,55.26,53.38c1.53-2,3-4.13,4.32-6.3A93.81,93.81,0,0,0,68,29.35a2,2,0,0,1,1.33-1.25l.66-.2,3.83-1.13a2,2,0,0,1,1.89.4l2.41,2.09a2,2,0,0,1,.57,2.25q-1.11,2.88-2.4,5.69a88.24,88.24,0,0,1-8,13.83,83.43,83.43,0,0,1-9.71,11.44,84.27,84.27,0,0,1-10.71,8.77,79.28,79.28,0,0,1-10,5.92A94.57,94.57,0,0,1,27.29,81.7a99.6,99.6,0,0,1-9.68,2.9c-2.73.65-5.48,1.23-8.25,1.64l-.89.13"/></g></g></svg>