<svg xmlns="http://www.w3.org/2000/svg" xmlns:xlink="http://www.w3.org/1999/xlink" viewBox="0 0 88.68 100.64"><defs><style>.cls-1{fill:none;}.cls-2{isolation:isolate;}.cls-3{fill:#575d88;}.cls-4{fill:#424879;}.cls-5{fill:#8185a5;}.cls-6{fill:#eaebf0;}.cls-6,.cls-8{opacity:0.6;}.cls-7{clip-path:url(#clip-path);}.cls-8{fill:#2d346a;mix-blend-mode:multiply;}.cls-9{fill:#f2b638;}</style><clipPath id="clip-path"><circle class="cls-1" cx="39.68" cy="65.97" r="34.66"/></clipPath></defs><g class="cls-2"><g id="Layer_6" data-name="Layer 6"><rect class="cls-3" x="18.89" y="23.57" width="9.24" height="20.03" rx="2.18" transform="translate(-12.75 14.47) rotate(-27.21)"/><path class="cls-4" d="M4.55,47.81H6.73A2.18,2.18,0,0,1,8.91,50v6.57a2.17,2.17,0,0,1-2.17,2.17H4.53a2.17,2.17,0,0,1-2.17-2.17V50a2.18,2.18,0,0,1,2.18-2.18Z" transform="translate(-46.81 42.38) rotate(-72.22)"/><path class="cls-4" d="M49.15,25.79h2.18A2.18,2.18,0,0,1,53.52,28v6.57a2.17,2.17,0,0,1-2.17,2.17H49.13A2.17,2.17,0,0,1,47,34.54V28a2.18,2.18,0,0,1,2.18-2.18Z" transform="matrix(0.95, 0.31, -0.31, 0.95, 11.94, -13.85)"/><circle class="cls-5" cx="39.68" cy="65.97" r="34.66"/><circle class="cls-6" cx="39.68" cy="65.97" r="26.19"/><rect class="cls-4" x="9.41" y="20.66" width="20.03" height="9.24" rx="2.18" transform="translate(-9.23 11.31) rotate(-26.47)"/><path class="cls-3" d="M28,42.52,39.68,66a1.16,1.16,0,0,0,1.55.52l21.89-12.2A26.22,26.22,0,0,0,28,42.52Z"/><g class="cls-7"><path class="cls-8" d="M74.7,31.51a2,2,0,0,0-1.91-.44l-4.11,1.19a3.69,3.69,0,0,1-.45.11,1.94,1.94,0,0,0-1.45,1.33c-.51,1.52-1,3-1.64,4.53A91,91,0,0,1,57.8,53c-1.41,2.28-2.94,4.48-4.57,6.61A78.25,78.25,0,0,1,41.4,71.73c-1,.86-2.1,1.67-3.19,2.48a80.58,80.58,0,0,1-11.06,6.67l-.39.19-1.4.64c-.91.41-1.83.8-2.75,1.18s-1.78.71-2.68,1l-1.3.47-.24.08c-1.51.49-3,.94-4.55,1.35-.73.19-1.47.38-2.21.55l-1,.22.69,1.25.61,1L13.41,91c1.2-.26,2.39-.54,3.58-.84a100.58,100.58,0,0,0,9.73-3.05,94.5,94.5,0,0,0,10-4.44,80.79,80.79,0,0,0,10.39-6.31,83.54,83.54,0,0,0,10.64-9,84.06,84.06,0,0,0,9.56-11.57,87.14,87.14,0,0,0,7.87-14.09c.87-1.95,1.66-3.93,2.4-5.93a2,2,0,0,0-.57-2.21Z"/></g><path class="cls-9" d="M79.12,1.17l1.5,6.6a1.49,1.49,0,0,0,.92,1.06l6.17,2.39A1.5,1.5,0,0,1,88,13.87l-5.78,3.8a1.46,1.46,0,0,0-.67,1.17l-.39,7a1.5,1.5,0,0,1-2.49,1l-4.9-4.31a1.5,1.5,0,0,0-1.42-.31L66.1,24.11a1.51,1.51,0,0,1-1.83-2l2.59-6.5a1.53,1.53,0,0,0-.12-1.35L63.09,8.39A1.5,1.5,0,0,1,64.46,6.1l6.6.43A1.52,1.52,0,0,0,72.35,6L76.47.59A1.5,1.5,0,0,1,79.12,1.17Z"/><path class="cls-9" d="M72.7,26.7a2,2,0,0,0-1.91-.42L66.68,27.5l-.44.11A2,2,0,0,0,64.8,29c-.5,1.52-1,3-1.61,4.54A90.22,90.22,0,0,1,56,48.26q-2.1,3.43-4.52,6.64A78.73,78.73,0,0,1,39.68,67.15c-1,.86-2.09,1.69-3.17,2.5a80.07,80.07,0,0,1-11,6.75l-.39.19-1.39.66c-.91.41-1.82.81-2.75,1.19s-1.77.72-2.66,1L17,80l-.24.08q-2.25.75-4.53,1.38c-.73.2-1.47.39-2.21.56l-.95.23.7,1.25.61,1,1.45,2.11c1.2-.26,2.39-.55,3.57-.86a99.75,99.75,0,0,0,9.71-3.12,91.68,91.68,0,0,0,10-4.51,80.13,80.13,0,0,0,10.35-6.38A84.36,84.36,0,0,0,56,62.7a84.75,84.75,0,0,0,9.48-11.63,87.61,87.61,0,0,0,7.77-14.15c.86-2,1.64-3.94,2.36-6a2,2,0,0,0-.58-2.2Z"/></g></g></svg>