<svg xmlns="http://www.w3.org/2000/svg" xmlns:xlink="http://www.w3.org/1999/xlink" viewBox="0 0 93.04 113.9"><defs><style>.cls-1{fill:none;}.cls-2{isolation:isolate;}.cls-3{fill:#575d88;}.cls-4{clip-path:url(#clip-path);}.cls-5{opacity:0.6;mix-blend-mode:multiply;}.cls-6{fill:#576574;}.cls-7{fill:#f2b638;}</style><clipPath id="clip-path"><path class="cls-1" d="M50.16,38.69a2,2,0,0,1-1.26-.59l-2.84-3.57a10.3,10.3,0,0,1-.83-1.26,1,1,0,0,0-1.11-.38c-.39.06-.73.32-1.11.11l-1.95-1.13-4.78-2.69a.51.51,0,0,0-.45,0S28.35,31.6,28.1,31.5L12.93,25.23a.93.93,0,0,1-.48-.44c-.17-.34-.65-.88-2-1.06a1,1,0,0,0-1,.46L8,26.72a1,1,0,0,0-.07.79c.21.57.39,1.51-.91,1.13-.16,0-.26-.26-.42-.34s-.64-.19-.72.11.24.66.55.85l.62.75a.53.53,0,0,1,0,.7s-3.2.33-3.3.23A3.43,3.43,0,0,0,2,30.8a4.12,4.12,0,0,1-.78.14,5.91,5.91,0,0,0-.82.24c-1,.4,0,1.12.51,1.44A2.74,2.74,0,0,0,3.39,33s1,0,.77.88,1.08.5,1.41.43a1.81,1.81,0,0,1,1,.21,2.24,2.24,0,0,1,.87.47s.53.2.23,1a13.37,13.37,0,0,0,.37,3.71.9.9,0,0,1,0,.56c-.25.29-3.51.53-4,.71A7.82,7.82,0,0,0,3,41.49c-.73.4-.11,1.09.34,1.46a1.2,1.2,0,0,1-.52,1.94A3.1,3.1,0,0,0,.83,49a.27.27,0,0,0,.06.12,16.79,16.79,0,0,1,1.57,4A24.4,24.4,0,0,0,4.3,55.9c.31.33.89,1.76,1.12,2,1.3,1.39,3.34,1.82,5.09,2.38.31.1.63.21.94.33a17.68,17.68,0,0,1,3,1.55,24.87,24.87,0,0,1,2.36,1.71c.28.22,2.12,2.66,2.5,3.05A4.83,4.83,0,0,1,20,68.16a1.63,1.63,0,0,0,.29.49c.15.2.39.48.68.45a.58.58,0,0,0,.36-.23.84.84,0,0,0,.2-.52,3.93,3.93,0,0,1,.33-1.44,1.89,1.89,0,0,1,.57-.71,1.06,1.06,0,0,1,.9-.24c.3.1,1.22.24,2.25-1.22a.37.37,0,0,1,.12-.13c.58-.4,1.3-.91,1.44-1.63a4.49,4.49,0,0,0-.43-3.1c-.37-.57-1-.71-1.54-1-.87-.4-1.72-.84-2.56-1.28a8,8,0,0,1-2-1.18A7.42,7.42,0,0,1,19,53.86a6.23,6.23,0,0,1-.24-.73c-.1-.38.23-.65.62-.65.57,0,1.26.05,1.26.05a9.71,9.71,0,0,1,1.3.28,11.74,11.74,0,0,1,4.22,2.65,14,14,0,0,0,1.27,1.16,25.77,25.77,0,0,1,3.09,3.09,27,27,0,0,1,3.57,4.55,3.43,3.43,0,0,1,.55,1.18c.07.67-.43,1.2-.45,1.85a2.48,2.48,0,0,0,.71,1.82c.49.51,1.06,1,1.58,1.55s1,.38,1.79.32a26.62,26.62,0,0,1,4.22,1.23l4.78,2C48,74.52,53,77.69,53,77.69c.62.39,1.23.8,1.83,1.24.78.56,1.54,1.16,2.28,1.78a55.51,55.51,0,0,1,4.11,3.86c1.77,1.81,1.88,4.52,1.16,6.82a9.34,9.34,0,0,1-3.85,4.8c-.23.17-.67.46-.53.8.08.18.35.36.48.51A21.64,21.64,0,0,0,61.06,100c.21.11,1.2,2,2.81,1.76a3.45,3.45,0,0,1,3.25.79.84.84,0,0,0,.29.2,16.59,16.59,0,0,1,2.38,1,.89.89,0,0,0,.75.2.71.71,0,0,0,.4-.57c0-.22,0-.45.07-.66a2.78,2.78,0,0,0,.16-.82A4.91,4.91,0,0,0,71,101a8.55,8.55,0,0,1-.34-.92.79.79,0,0,0-.19-.39s0-.09-.07-.13a1.3,1.3,0,0,0-.31-.52,1.85,1.85,0,0,0-1.27-.6,2.75,2.75,0,0,1-1.9-1.38.51.51,0,0,1,0-.32,7.94,7.94,0,0,1,1.65-2.47.49.49,0,0,1,.54,0l.56.26a.52.52,0,0,1,.25.72c-.15.26-.08.58,1,.77a1.11,1.11,0,0,1,.39.16c.58.41,1.15.84,1.7,1.29a11.34,11.34,0,0,1,1.3,1.2c.35.38.58.84.91,1.22a2.71,2.71,0,0,1,.79,2.57.61.61,0,0,1-.05.12,8.86,8.86,0,0,1-1,1.4,1,1,0,0,0,0,1.33c1.23,1.28,3,1.92,4.19,3.28a9,9,0,0,1,.62.86A7.15,7.15,0,0,1,80.72,113a2,2,0,0,0,.11.77.2.2,0,0,0,.14.15c.08,0,.16,0,.23-.1a3,3,0,0,0,.74-2.12,6.94,6.94,0,0,0-.5-2.23,8.75,8.75,0,0,0-.67-1.46,1.53,1.53,0,0,0-.88-.7c-.46-.19-2.09-1.65-.9-1.89a3,3,0,0,0,1.79-1.59,1,1,0,0,1,.9-.49,2.13,2.13,0,0,0,2.54-2,8.3,8.3,0,0,0-.92-5.11,4.5,4.5,0,0,0-.31-.45l-.12-.12a2,2,0,0,1-.39-.37c-.28-.38-.06-.72.29-.93l1-.69,2.73-1.91a12.89,12.89,0,0,0,1.88-1.78c.11-.32-.24-.63-.51-.83a4.45,4.45,0,0,0-.66-.48,2.28,2.28,0,0,0-.45-.2,2.88,2.88,0,0,1-1.21-.69l-1.07-1c-.32-.31-.72-.91-1.22-.92s-.85,0-.82-.56l.6-9a1,1,0,0,1,.79-.88l.4-.07a1,1,0,0,0,.71-1.3A1.28,1.28,0,0,1,86,71.82a1.52,1.52,0,0,1,.68.28,2,2,0,0,0,.68.23c.54.12,1.22.12,1.53.64a7,7,0,0,0,1.15,1.54,2.66,2.66,0,0,0,2,.66.94.94,0,0,0,1-.72.5.5,0,0,0-.15-.46c-.31-.31-.93-1-.54-1.38a.53.53,0,0,0,0-.82,2.17,2.17,0,0,0-1.5-.22,1,1,0,0,1-.24,0,7,7,0,0,1-2.5-.88,3.3,3.3,0,0,1-.51-.48l-1.19-1.12c-.77-.72-1.45-1.54-2.15-2.34-.9-1-1.78-2.06-2.63-3.13-1.21-1.52-2.37-3.09-3.5-4.68l-1.21-1.75c-2.72-4-5.24-8.15-7.58-12.39-.51-.92-1-1.84-1.5-2.78a2.39,2.39,0,0,0-.6-.74,2.75,2.75,0,0,1-.65-.57,10.13,10.13,0,0,1-.78-1.93.88.88,0,0,0-.28-.4.72.72,0,0,0-.67,0,19.89,19.89,0,0,1-10.58,1.12q-1.38-.21-2.73-.51l-1.36-.31"/></clipPath></defs><g class="cls-2"><g id="Layer_6" data-name="Layer 6"><path class="cls-3" d="M50.16,38.69a2,2,0,0,1-1.26-.59l-2.84-3.57a10.3,10.3,0,0,1-.83-1.26,1,1,0,0,0-1.11-.38c-.39.06-.73.32-1.11.11l-1.95-1.13-4.78-2.69a.51.51,0,0,0-.45,0S28.35,31.6,28.1,31.5L12.93,25.23a.93.93,0,0,1-.48-.44c-.17-.34-.65-.88-2-1.06a1,1,0,0,0-1,.46L8,26.72a1,1,0,0,0-.07.79c.21.57.39,1.51-.91,1.13-.16,0-.26-.26-.42-.34s-.64-.19-.72.11.24.66.55.85l.62.75a.53.53,0,0,1,0,.7s-3.2.33-3.3.23A3.43,3.43,0,0,0,2,30.8a4.12,4.12,0,0,1-.78.14,5.91,5.91,0,0,0-.82.24c-1,.4,0,1.12.51,1.44A2.74,2.74,0,0,0,3.39,33s1,0,.77.88,1.08.5,1.41.43a1.81,1.81,0,0,1,1,.21,2.24,2.24,0,0,1,.87.47s.53.2.23,1a13.37,13.37,0,0,0,.37,3.71.9.9,0,0,1,0,.56c-.25.29-3.51.53-4,.71A7.82,7.82,0,0,0,3,41.49c-.73.4-.11,1.09.34,1.46a1.2,1.2,0,0,1-.52,1.94A3.1,3.1,0,0,0,.83,49a.27.27,0,0,0,.06.12,16.79,16.79,0,0,1,1.57,4A24.4,24.4,0,0,0,4.3,55.9c.31.33.89,1.76,1.12,2,1.3,1.39,3.34,1.82,5.09,2.38.31.1.63.21.94.33a17.68,17.68,0,0,1,3,1.55,24.87,24.87,0,0,1,2.36,1.71c.28.22,2.12,2.66,2.5,3.05A4.83,4.83,0,0,1,20,68.16a1.63,1.63,0,0,0,.29.49c.15.2.39.48.68.45a.58.58,0,0,0,.36-.23.84.84,0,0,0,.2-.52,3.93,3.93,0,0,1,.33-1.44,1.89,1.89,0,0,1,.57-.71,1.06,1.06,0,0,1,.9-.24c.3.1,1.22.24,2.25-1.22a.37.37,0,0,1,.12-.13c.58-.4,1.3-.91,1.44-1.63a4.49,4.49,0,0,0-.43-3.1c-.37-.57-1-.71-1.54-1-.87-.4-1.72-.84-2.56-1.28a8,8,0,0,1-2-1.18A7.42,7.42,0,0,1,19,53.86a6.23,6.23,0,0,1-.24-.73c-.1-.38.23-.65.62-.65.57,0,1.26.05,1.26.05a9.71,9.71,0,0,1,1.3.28,11.74,11.74,0,0,1,4.22,2.65,14,14,0,0,0,1.27,1.16,25.77,25.77,0,0,1,3.09,3.09,27,27,0,0,1,3.57,4.55,3.43,3.43,0,0,1,.55,1.18c.07.67-.43,1.2-.45,1.85a2.48,2.48,0,0,0,.71,1.82c.49.51,1.06,1,1.58,1.55s1,.38,1.79.32a26.62,26.62,0,0,1,4.22,1.23l4.78,2C48,74.52,53,77.69,53,77.69c.62.39,1.23.8,1.83,1.24.78.56,1.54,1.16,2.28,1.78a55.51,55.51,0,0,1,4.11,3.86c1.77,1.81,1.88,4.52,1.16,6.82a9.34,9.34,0,0,1-3.85,4.8c-.23.17-.67.46-.53.8.08.18.35.36.48.51A21.64,21.64,0,0,0,61.06,100c.21.11,1.2,2,2.81,1.76a3.45,3.45,0,0,1,3.25.79.84.84,0,0,0,.29.2,16.59,16.59,0,0,1,2.38,1,.89.89,0,0,0,.75.2.71.71,0,0,0,.4-.57c0-.22,0-.45.07-.66a2.78,2.78,0,0,0,.16-.82A4.91,4.91,0,0,0,71,101a8.55,8.55,0,0,1-.34-.92.79.79,0,0,0-.19-.39s0-.09-.07-.13a1.3,1.3,0,0,0-.31-.52,1.85,1.85,0,0,0-1.27-.6,2.75,2.75,0,0,1-1.9-1.38.51.51,0,0,1,0-.32,7.94,7.94,0,0,1,1.65-2.47.49.49,0,0,1,.54,0l.56.26a.52.52,0,0,1,.25.72c-.15.26-.08.58,1,.77a1.11,1.11,0,0,1,.39.16c.58.41,1.15.84,1.7,1.29a11.34,11.34,0,0,1,1.3,1.2c.35.38.58.84.91,1.22a2.71,2.71,0,0,1,.79,2.57.61.61,0,0,1-.05.12,8.86,8.86,0,0,1-1,1.4,1,1,0,0,0,0,1.33c1.23,1.28,3,1.92,4.19,3.28a9,9,0,0,1,.62.86A7.15,7.15,0,0,1,80.72,113a2,2,0,0,0,.11.77.2.2,0,0,0,.14.15c.08,0,.16,0,.23-.1a3,3,0,0,0,.74-2.12,6.94,6.94,0,0,0-.5-2.23,8.75,8.75,0,0,0-.67-1.46,1.53,1.53,0,0,0-.88-.7c-.46-.19-2.09-1.65-.9-1.89a3,3,0,0,0,1.79-1.59,1,1,0,0,1,.9-.49,2.13,2.13,0,0,0,2.54-2,8.3,8.3,0,0,0-.92-5.11,4.5,4.5,0,0,0-.31-.45l-.12-.12a2,2,0,0,1-.39-.37c-.28-.38-.06-.72.29-.93l1-.69,2.73-1.91a12.89,12.89,0,0,0,1.88-1.78c.11-.32-.24-.63-.51-.83a4.45,4.45,0,0,0-.66-.48,2.28,2.28,0,0,0-.45-.2,2.88,2.88,0,0,1-1.21-.69l-1.07-1c-.32-.31-.72-.91-1.22-.92s-.85,0-.82-.56l.6-9a1,1,0,0,1,.79-.88l.4-.07a1,1,0,0,0,.71-1.3A1.28,1.28,0,0,1,86,71.82a1.52,1.52,0,0,1,.68.28,2,2,0,0,0,.68.23c.54.12,1.22.12,1.53.64a7,7,0,0,0,1.15,1.54,2.66,2.66,0,0,0,2,.66.94.94,0,0,0,1-.72.5.5,0,0,0-.15-.46c-.31-.31-.93-1-.54-1.38a.53.53,0,0,0,0-.82,2.17,2.17,0,0,0-1.5-.22,1,1,0,0,1-.24,0,7,7,0,0,1-2.5-.88,3.3,3.3,0,0,1-.51-.48l-1.19-1.12c-.77-.72-1.45-1.54-2.15-2.34-.9-1-1.78-2.06-2.63-3.13-1.21-1.52-2.37-3.09-3.5-4.68l-1.21-1.75c-2.72-4-5.24-8.15-7.58-12.39-.51-.92-1-1.84-1.5-2.78a2.39,2.39,0,0,0-.6-.74,2.75,2.75,0,0,1-.65-.57,10.13,10.13,0,0,1-.78-1.93.88.88,0,0,0-.28-.4.72.72,0,0,0-.67,0,19.89,19.89,0,0,1-10.58,1.12q-1.38-.21-2.73-.51l-1.36-.31"/><g class="cls-4"><g class="cls-5"><path class="cls-6" d="M52.12,77.92a9,9,0,0,0,1.66-1,81.42,81.42,0,0,0,16.16-18A85.63,85.63,0,0,0,80.66,35.3,2,2,0,0,0,80,33.2l-2.77-2.36a1.51,1.51,0,0,0-1.41-.33L71,31.92a2,2,0,0,0-1.38,1.43,87.62,87.62,0,0,1-9.69,23.4,79.32,79.32,0,0,1-4.46,6.59A79,79,0,0,1,44.37,75h0l1.9.6.51.16,4.27,1.87c.3.11.71.18,1.07.27Z"/></g></g><path class="cls-7" d="M79.73,1.17l1.49,6.59a1.51,1.51,0,0,0,.92,1.07l6.17,2.38a1.5,1.5,0,0,1,.29,2.65l-5.78,3.8a1.46,1.46,0,0,0-.67,1.17l-.39,7a1.5,1.5,0,0,1-2.48,1.05l-4.9-4.31A1.5,1.5,0,0,0,73,22.24l-6.25,1.85a1.5,1.5,0,0,1-1.82-2l2.58-6.5a1.5,1.5,0,0,0-.12-1.35L63.7,8.39A1.5,1.5,0,0,1,65.07,6.1l6.6.43A1.52,1.52,0,0,0,73,5.94L77.08.59A1.5,1.5,0,0,1,79.73,1.17Z"/><path class="cls-7" d="M39.88,71.35c1,.31,2.14.72,2.6.86l4.78,2,.15.07h0l.32-.16a7.83,7.83,0,0,0,1.67-1.05,81,81,0,0,0,16.16-18A85.6,85.6,0,0,0,76.29,31.53a2,2,0,0,0-.63-2.1l-2.77-2.35a1.49,1.49,0,0,0-1.41-.34l-4.86,1.41a2,2,0,0,0-1.39,1.43A88,88,0,0,1,55.55,53a79.15,79.15,0,0,1-4.46,6.58A78.57,78.57,0,0,1,40,71.25Z"/></g></g></svg>